<?xml version="1.0" encoding="UTF-8"?>
<svg version="1.1" xmlns="http://www.w3.org/2000/svg" width="1571" height="999">
<path d="M0 0 C1.71795273 -0.01073296 1.71795273 -0.01073296 3.47061157 -0.02168274 C4.72830856 -0.02437164 5.98600555 -0.02706055 7.28181458 -0.02983093 C8.61901526 -0.03609714 9.95621421 -0.04274409 11.29341125 -0.04974365 C15.68642467 -0.07077123 20.07943837 -0.08114618 24.4724884 -0.09111023 C25.98635183 -0.09515855 27.50021508 -0.0992755 29.01407814 -0.10346031 C36.12824391 -0.1225107 43.24239932 -0.13674092 50.35658568 -0.14507228 C58.56000099 -0.15483851 66.76314602 -0.1811424 74.96646613 -0.22157317 C81.31224899 -0.25177191 87.65795454 -0.26654479 94.00380784 -0.26985329 C97.79133844 -0.2721999 101.57858025 -0.28110888 105.36603355 -0.30631447 C108.93250946 -0.32966576 112.49850793 -0.33380052 116.06504059 -0.32355309 C117.98866374 -0.32282489 119.91226302 -0.3418674 121.83578491 -0.36161804 C128.85797108 -0.31956117 133.56082258 0.27599605 139.49201965 4.14717102 C143.33576582 8.97649312 144.61445921 12.61283655 144.63246155 18.69984436 C144.63817169 19.85500549 144.64388184 21.01016663 144.64976501 22.20033264 C144.6514418 24.1032608 144.6514418 24.1032608 144.65315247 26.04463196 C144.65778152 27.39330684 144.6628063 28.74198041 144.66819763 30.09065247 C144.68131683 33.75611669 144.68776586 37.42156259 144.69220829 41.08704662 C144.69514031 43.37815026 144.6992454 45.66924891 144.70371246 47.96035004 C144.71738727 55.13164807 144.72705352 62.30293467 144.73091435 69.47424483 C144.73539264 77.74667087 144.75292988 86.01893147 144.78191495 94.29130721 C144.80355108 100.68887982 144.81361969 107.08640595 144.81495547 113.48401475 C144.81600229 117.30331422 144.8218835 121.12245817 144.83977509 124.94171906 C144.85628888 128.53686122 144.8583954 132.13173155 144.84963608 135.72689819 C144.84850208 137.66858399 144.86219464 139.61026089 144.87638855 141.55189514 C144.84302805 148.53914056 144.72770474 154.28379839 140.06233215 159.85420227 C135.03456538 163.69976442 131.14934376 165.39295963 124.81945801 165.41459656 C123.68823517 165.42312653 122.55701233 165.43165649 121.39151001 165.44044495 C120.15970505 165.43953857 118.92790009 165.4386322 117.6587677 165.43769836 C115.70184998 165.4477742 115.70184998 165.4477742 113.70539856 165.45805359 C110.13293854 165.47569309 106.56057438 165.48040813 102.98807502 165.48168516 C100.75356349 165.48310863 98.51907619 165.48738196 96.28457069 165.4926796 C88.48171573 165.51117401 80.67892901 165.51935106 72.87605286 165.51777649 C65.61476352 165.51657566 58.35377169 165.53766775 51.09255761 165.56926382 C44.84863255 165.5954603 38.60480445 165.60614236 32.36082488 165.60486567 C28.63593791 165.60435697 24.91131537 165.60998878 21.18648338 165.63122177 C17.02860224 165.65427684 12.87138283 165.64506274 8.7134552 165.63301086 C7.48772293 165.64424988 6.26199066 165.65548889 4.99911499 165.66706848 C-2.47073368 165.6120844 -8.35581858 165.02509498 -14.05765247 159.69985008 C-18.17782242 155.09027152 -18.62967347 151.46418581 -18.65515137 145.48097229 C-18.66230667 144.32588165 -18.66946198 143.17079102 -18.67683411 141.98069763 C-18.67952301 140.71724518 -18.68221191 139.45379272 -18.6849823 138.15205383 C-18.69125046 136.80485358 -18.69789758 135.45765504 -18.70489502 134.11045837 C-18.72589561 129.69041641 -18.73629356 125.27037426 -18.7462616 120.85029602 C-18.75031063 119.32621493 -18.75442759 117.80213401 -18.75861168 116.27805328 C-18.77765445 109.11690456 -18.79188747 101.95576608 -18.80022365 94.79459691 C-18.80999345 86.53912204 -18.83630989 78.28391548 -18.87672454 70.02853513 C-18.90692129 63.64026963 -18.92169588 57.25208091 -18.92500466 50.86374545 C-18.92735105 47.05163831 -18.9362576 43.23981811 -18.96146584 39.42778778 C-18.98481433 35.83913853 -18.988953 32.25096378 -18.97870445 28.66225815 C-18.9779762 26.72671687 -18.99701954 24.79119932 -19.01676941 22.85575867 C-18.97486029 15.81618116 -18.3931424 11.09127071 -14.50798035 5.14717102 C-9.69777453 1.31863986 -6.06399685 0.02598899 0 0 Z " fill="#6D6F72" transform="translate(1054.5079803466797,167.8528289794922)"/>
<path d="M0 0 C1.699002 -0.01062721 1.699002 -0.01062721 3.43232727 -0.02146912 C4.66570328 -0.0189917 5.89907928 -0.01651428 7.16983032 -0.01396179 C9.12915749 -0.02162819 9.12915749 -0.02162819 11.12806702 -0.02944946 C14.70460171 -0.04282171 18.28103061 -0.04342005 21.85758543 -0.04088616 C24.84703501 -0.03981509 27.8364633 -0.04470339 30.8259083 -0.04949158 C37.88115767 -0.06058096 44.9363538 -0.06102761 51.99160767 -0.05497742 C59.26082073 -0.0489394 66.52984015 -0.06124548 73.79902017 -0.08254749 C80.04802346 -0.10018402 86.29696524 -0.10616155 92.54599249 -0.10290974 C96.27470708 -0.10109976 100.00328358 -0.10370431 103.73197556 -0.11762428 C107.89237718 -0.13257508 112.05238675 -0.1232146 116.21279907 -0.11161804 C117.44212662 -0.11926178 118.67145416 -0.12690552 119.93803406 -0.13478088 C127.04092808 -0.09101247 132.72554348 0.10955512 138.28164673 4.97944641 C138.98160767 5.86116516 138.98160767 5.86116516 139.69570923 6.76069641 C140.41887329 7.64241516 140.41887329 7.64241516 141.15664673 8.54194641 C143.43682865 11.90865797 143.45124044 14.90461825 143.46788025 18.84460449 C143.4786132 20.58779968 143.4786132 20.58779968 143.48956299 22.36621094 C143.49225189 23.64260941 143.4949408 24.91900787 143.49771118 26.23408508 C143.5039773 27.59098993 143.51062423 28.94789305 143.5176239 30.30479431 C143.53865247 34.76273914 143.54902647 39.22068425 143.55899048 43.67866516 C143.56303875 45.21481659 143.5671557 46.75096785 143.57134056 48.28711891 C143.59039111 55.50593618 143.60462134 62.72474324 143.61295253 69.94358081 C143.62271905 78.26811542 143.64902364 86.59238371 143.68945342 94.91682452 C143.71965031 101.35602483 143.73442486 107.79514897 143.73773354 114.23441869 C143.74008035 118.07783885 143.74899193 121.92097446 143.77419472 125.76431847 C143.79754275 129.383322 143.80168204 133.00185501 143.79143333 136.62091446 C143.79070499 138.57316376 143.80974973 140.52538952 143.82949829 142.47753906 C143.78779511 149.5417371 143.22574502 154.29834497 139.32070923 160.26069641 C134.50377726 164.09458104 130.87157928 165.3830703 124.79927063 165.40113831 C123.65107849 165.40684845 122.50288635 165.41255859 121.31990051 165.41844177 C120.05906143 165.41955963 118.79822235 165.42067749 117.49917603 165.42182922 C116.15873071 165.42645826 114.81828671 165.43148304 113.47784424 165.43687439 C109.83517371 165.44999252 106.19252161 165.45644225 102.54983115 165.46088505 C100.27347615 165.46381684 97.99712617 165.46792186 95.7207737 165.47238922 C88.59699804 165.48606287 81.47323387 165.49573006 74.349446 165.49959111 C66.12908001 165.5040711 57.90888037 165.52161669 49.68856496 165.55059171 C43.33262119 165.57221663 36.9767242 165.58229583 30.62074405 165.58363223 C26.82550938 165.58467972 23.03043111 165.59057544 19.23523521 165.60845184 C15.66389806 165.62494656 12.09283463 165.6270814 8.52147293 165.61831284 C6.59032958 165.61717696 4.65919525 165.63088371 2.72810364 165.64506531 C-4.16279013 165.6118864 -9.21409755 165.39172006 -14.54257202 160.57710266 C-15.02081421 159.9983136 -15.4990564 159.41952454 -15.99179077 158.82319641 C-16.48292358 158.24698547 -16.9740564 157.67077454 -17.48007202 157.07710266 C-19.84780864 153.49079149 -19.80842154 149.83789353 -19.82646179 145.63246155 C-19.8336171 144.48578506 -19.8407724 143.33910858 -19.84814453 142.15768433 C-19.85083344 140.90358261 -19.85352234 139.6494809 -19.85629272 138.3573761 C-19.86256095 137.02002792 -19.86920807 135.68268147 -19.87620544 134.34533691 C-19.89720533 129.95776065 -19.90760393 125.57018421 -19.91757202 121.18257141 C-19.92162108 119.66963432 -19.92573805 118.15669741 -19.9299221 116.64376068 C-19.94896474 109.5349377 -19.96319778 102.42612505 -19.97153407 95.31728148 C-19.98130375 87.12236626 -20.00761993 78.92772134 -20.04803497 70.73290133 C-20.07823264 64.39134457 -20.09300639 58.04986514 -20.09631509 51.70823789 C-20.09866138 47.92407552 -20.10756658 44.14020223 -20.13277626 40.35611725 C-20.15612639 36.7937318 -20.16026279 33.23182435 -20.15001488 29.6693821 C-20.1492867 27.74815389 -20.16832891 25.82694957 -20.18807983 23.90582275 C-20.14591477 16.87434779 -19.50323748 12.22208562 -15.67929077 6.26069641 C-10.99755964 1.69900967 -6.48119689 0.0135512 0 0 Z " fill="#6D6F72" transform="translate(890.6792907714844,332.7393035888672)"/>
<path d="M0 0 C1.12984818 -0.0071553 2.25969635 -0.01431061 3.42378235 -0.02168274 C4.65918259 -0.02437164 5.89458282 -0.02706055 7.16741943 -0.02983093 C8.47188522 -0.03640213 9.77635101 -0.04297333 11.12034607 -0.04974365 C15.44299092 -0.0707421 19.76563594 -0.08114203 24.08831787 -0.09111023 C25.57896696 -0.09515935 27.06961587 -0.09927632 28.56026459 -0.10346031 C35.56443606 -0.12250267 42.56859706 -0.13673574 49.57278943 -0.14507228 C57.6465854 -0.15484172 65.720107 -0.18115735 73.79380631 -0.22157317 C80.04194563 -0.25177274 86.29000645 -0.26654478 92.53821731 -0.26985329 C96.26649016 -0.27219938 99.99446959 -0.28110184 103.72266388 -0.30631447 C107.88541323 -0.33401207 112.04755244 -0.32975237 116.21038818 -0.32279968 C118.05134315 -0.34201477 118.05134315 -0.34201477 119.92948914 -0.36161804 C128.0525028 -0.3121891 133.79001888 0.5857516 139.82269287 6.45967102 C144.13162754 13.58598605 143.73901007 20.90960475 143.72235107 29.00801086 C143.72746201 30.2918013 143.73257294 31.57559174 143.73783875 32.89828491 C143.75117727 36.40459044 143.75181314 39.91078784 143.74927545 43.41711378 C143.74820213 46.35179809 143.75309836 49.28646084 143.75788087 52.2211405 C143.76895848 59.14897452 143.76942346 66.07675431 143.7633667 73.0045929 C143.75732915 80.13407222 143.76963627 87.26335409 143.79093677 94.39279974 C143.80859293 100.52977384 143.81454778 106.66668533 143.81129903 112.80368388 C143.80949225 116.46201046 143.81206136 120.12019619 143.82601357 123.7784996 C143.84100465 127.86164272 143.83158682 131.94438786 143.82000732 136.02754211 C143.82765106 137.22783554 143.8352948 138.42812897 143.84317017 139.66479492 C143.79717085 147.01844389 143.48268068 154.33964086 138.72894287 160.30342102 C138.14113037 160.74685852 137.55331787 161.19029602 136.94769287 161.64717102 C136.35988037 162.11123352 135.77206787 162.57529602 135.16644287 163.05342102 C131.7716716 165.21373001 128.81417195 165.27936771 124.90174866 165.30107117 C123.1711747 165.31397186 123.1711747 165.31397186 121.40563965 165.32713318 C120.13859192 165.33139313 118.87154419 165.33565308 117.56610107 165.34004211 C116.21904795 165.34794534 114.87199693 165.35621443 113.52494812 165.36482239 C109.09947729 165.39102059 104.67399712 165.40634944 100.24847412 165.42060852 C98.72346681 165.42596941 97.19845957 165.43134693 95.67345238 165.43674088 C89.32794292 165.45836782 82.98243598 165.47710295 76.63689899 165.48836327 C67.55187125 165.5045923 58.46727186 165.53774632 49.38240558 165.59476411 C42.98991626 165.63351184 36.59754128 165.65300174 30.20493764 165.65828383 C26.38938853 165.66193119 22.57429653 165.67388569 18.75887489 165.70638657 C15.16606377 165.7365524 11.57398427 165.74274944 7.98107338 165.73100281 C6.04310869 165.73067831 4.10518858 165.7550882 2.16738892 165.78038025 C-4.95050113 165.7296787 -10.26470395 165.21764874 -15.55230713 160.14717102 C-20.71003537 153.94459778 -20.11954165 147.42486439 -20.06988525 139.62788391 C-20.07531196 138.26053118 -20.08243769 136.89318429 -20.09112549 135.52584839 C-20.10929874 131.82734964 -20.10231604 128.12929923 -20.08960915 124.43079305 C-20.0794481 120.55079435 -20.0888836 116.6708328 -20.09515381 112.79083252 C-20.10242209 106.27518356 -20.09286506 99.75971621 -20.0737915 93.24409485 C-20.05203334 85.72485093 -20.05906952 78.20604107 -20.08109713 70.68680769 C-20.09928553 64.21776762 -20.10179243 57.74885776 -20.09134245 51.27980036 C-20.08512517 47.42195589 -20.08422273 43.56431501 -20.0974884 39.70648384 C-20.10909632 36.07751096 -20.10093224 32.4490941 -20.07791138 28.82018089 C-20.07015246 26.86324693 -20.0819386 24.90626561 -20.09442139 22.94935608 C-20.02684468 15.88653434 -19.44858357 11.11194432 -15.55230713 5.14717102 C-10.40705481 0.96665351 -6.47844399 0.02820853 0 0 Z " fill="#E42528" transform="translate(555.5523071289063,332.8528289794922)"/>
<path d="M0 0 C1.14819214 -0.00571014 2.29638428 -0.01142029 3.47937012 -0.01730347 C5.37062874 -0.01898026 5.37062874 -0.01898026 7.3000946 -0.02069092 C8.64053992 -0.02531996 9.98098392 -0.03034473 11.32142639 -0.03573608 C14.96409692 -0.04885421 18.60674902 -0.05530394 22.24943948 -0.05974674 C24.52579448 -0.06267854 26.80214446 -0.06678356 29.07849693 -0.07125092 C36.20227259 -0.08492456 43.32603676 -0.09459176 50.44982463 -0.09845281 C58.67019062 -0.10293279 66.89039026 -0.12047838 75.11070567 -0.1494534 C81.46664944 -0.17107832 87.82254643 -0.18115753 94.17852658 -0.18249393 C97.97376124 -0.18354142 101.76883952 -0.18943713 105.56403542 -0.20731354 C109.13537257 -0.22380825 112.706436 -0.22594309 116.2777977 -0.21717453 C118.20894105 -0.21603865 120.14007538 -0.22974541 122.07116699 -0.243927 C132.74920599 -0.1925134 132.74920599 -0.1925134 137.4785614 3.14044189 C142.74516398 8.52673999 144.72357416 13.4491274 144.73925781 20.93325806 C144.74634262 22.06585556 144.75342743 23.19845306 144.76072693 24.3653717 C144.75824951 25.59358139 144.75577209 26.82179108 144.7532196 28.08721924 C144.75833054 29.39197708 144.76344147 30.69673492 144.76870728 32.04103088 C144.78206351 35.60930942 144.78267966 39.17748182 144.78014398 42.74578047 C144.77907184 45.7302153 144.78396389 48.71462887 144.7887494 51.69905913 C144.79983318 58.74333841 144.80028853 65.78756437 144.79423523 72.83184814 C144.7881974 80.08572533 144.8005041 87.33940846 144.8218053 94.59325254 C144.839451 100.83294989 144.84541794 107.07258563 144.84216756 113.312307 C144.84035908 117.03377285 144.84294705 120.75510029 144.8568821 124.47654343 C144.87185168 128.62944787 144.86246443 132.78196023 144.85087585 136.93487549 C144.85851959 138.15903671 144.86616333 139.38319794 144.8740387 140.64445496 C144.78917861 154.41499895 144.78917861 154.41499895 140.13284779 159.65477562 C135.39985065 163.86590941 130.99175128 165.38821151 124.75457764 165.40113831 C123.61205032 165.40822311 122.46952301 165.41530792 121.29237366 165.42260742 C120.04807587 165.42013 118.80377808 165.41765259 117.52177429 165.4151001 C115.54540733 165.42276649 115.54540733 165.42276649 113.52911377 165.43058777 C109.92165571 165.44395984 106.31430254 165.44455847 102.70682454 165.44202447 C99.69242749 165.44095358 96.67805156 165.44584113 93.66365904 165.45062989 C86.55091832 165.46171879 79.43823041 165.46216591 72.32548523 165.45611572 C64.99376887 165.45007508 57.66224437 165.46239057 50.33056074 165.48368579 C44.02976894 165.50131216 37.72903815 165.50730154 31.4282226 165.50404805 C27.66768229 165.50223675 23.90727887 165.50485597 20.14676094 165.51876259 C15.9526286 165.53369291 11.75888588 165.52436179 7.56474304 165.51275635 C5.7013327 165.52422195 5.7013327 165.52422195 3.80027771 165.53591919 C-3.75422837 165.48965403 -8.40851452 164.82887633 -14.2714386 159.76544189 C-17.9325702 155.49412169 -18.77042299 151.87328074 -18.78886414 146.31602478 C-18.7973941 145.15114532 -18.80592407 143.98626587 -18.81471252 142.78608704 C-18.81380615 141.51687912 -18.81289978 140.2476712 -18.81196594 138.94000244 C-18.81795379 137.58280061 -18.82475993 136.22560218 -18.83232117 134.8684082 C-18.84996361 131.18851415 -18.85467583 127.50871315 -18.85595274 123.82878089 C-18.85737603 121.52726577 -18.86164903 119.22577418 -18.86694717 116.92426491 C-18.88544251 108.88799161 -18.89361852 100.8517846 -18.89204407 92.81549072 C-18.89084319 85.33607872 -18.91193604 77.85695553 -18.94353139 70.37761658 C-18.96972466 63.94685696 -18.98041007 57.51619148 -18.97913325 51.08537894 C-18.97862445 47.24871239 -18.98426137 43.41230252 -19.00548935 39.57568932 C-19.02492316 35.96484457 -19.02496168 32.35449998 -19.01045609 28.74363708 C-19.00738433 26.79619409 -19.02400894 24.84875078 -19.04133606 22.90138245 C-18.99090355 15.84755209 -18.41750563 11.09540591 -14.5214386 5.14044189 C-9.70450663 1.30655727 -6.07230865 0.01806801 0 0 Z " fill="#E42528" transform="translate(389.5214385986328,164.85955810546875)"/>
<path d="M0 0 C1.74742493 -0.01279495 1.74742493 -0.01279495 3.53015137 -0.02584839 C4.8045256 -0.02494202 6.07889984 -0.02403564 7.39189148 -0.02310181 C8.75056833 -0.02908769 10.10924178 -0.03589338 11.46791077 -0.04345703 C15.15606102 -0.06111995 18.84411845 -0.06581258 22.53230691 -0.0670886 C24.83799659 -0.0685108 27.14366272 -0.07278171 29.44934654 -0.07808304 C37.49743013 -0.09658549 45.54544748 -0.10475353 53.59355164 -0.10317993 C61.08829943 -0.10197902 68.58275901 -0.12307075 76.07743388 -0.15466726 C82.51749946 -0.18084734 88.95747102 -0.19154648 95.39758939 -0.19026911 C99.24150454 -0.18975991 103.08516363 -0.19541948 106.92902565 -0.21662521 C110.54642008 -0.23603661 114.163315 -0.23611276 117.78072739 -0.22159195 C119.73433612 -0.21851481 121.68794504 -0.23516074 123.64147949 -0.25247192 C130.39598674 -0.20418238 134.86440919 0.08847896 140.28910828 4.26742554 C144.07368859 9.14754226 145.41031427 12.71015751 145.4362793 18.81336975 C145.44701225 20.54394371 145.44701225 20.54394371 145.45796204 22.30947876 C145.46065094 23.57652649 145.46333984 24.84357422 145.46611023 26.14901733 C145.47237639 27.4960701 145.47902333 28.84312114 145.48602295 30.19017029 C145.50705103 34.61564941 145.5174255 39.04112882 145.52738953 43.46664429 C145.53143782 44.99165172 145.53555477 46.51665897 145.53973961 48.04166603 C145.55879008 55.20815755 145.5730203 62.37463878 145.58135158 69.54115075 C145.59111795 77.8051257 145.6174222 86.06883237 145.65785247 94.33271283 C145.68805028 100.72520441 145.70282399 107.11761926 145.70613259 113.51018077 C145.7084793 117.32565614 145.71738959 121.14084486 145.74259377 124.95624352 C145.76594341 128.54898323 145.77008046 132.14124899 145.75983238 135.73404503 C145.75910411 137.67198125 145.77814775 139.60989377 145.79789734 141.54772949 C145.74908781 149.7565429 144.91401725 155.54454605 138.97660828 161.64242554 C131.90090402 165.92075834 124.65326878 165.5588864 116.61186218 165.54208374 C115.34757889 165.54719467 114.08329559 165.5523056 112.78070068 165.55757141 C109.32811199 165.57090822 105.87563312 165.571546 102.4230237 165.56900811 C99.53307517 165.56793467 96.64314852 165.57283133 93.7532047 165.57761353 C86.93084585 165.58869055 80.10854207 165.58915646 73.28617859 165.58309937 C66.26576121 165.57706192 59.24554437 165.58936881 52.22516119 165.61066943 C46.18160438 165.62832691 40.13811115 165.63428024 34.09452951 165.63103169 C30.49209343 165.62922512 26.88980039 165.63179197 23.28738785 165.64574623 C19.2665088 165.66074001 15.2460338 165.65131837 11.22514343 165.63973999 C10.04355148 165.64738373 8.86195953 165.65502747 7.64456177 165.66290283 C-6.82717197 165.57099849 -6.82717197 165.57099849 -12.2929287 160.92171192 C-16.46984676 156.20914965 -17.95883795 151.70190086 -17.97158813 145.51220703 C-17.97867294 144.36271072 -17.98575775 143.21321442 -17.99305725 142.02888489 C-17.99057983 140.7768074 -17.98810242 139.52472992 -17.98554993 138.23471069 C-17.98989974 136.89559139 -17.99508379 135.55647458 -18.0010376 134.21736145 C-18.01441098 130.58710989 -18.01500806 126.95696254 -18.0124743 123.32669115 C-18.01140331 120.29250579 -18.01629131 117.25834141 -18.02107972 114.22416055 C-18.03216949 107.063436 -18.03261552 99.9027639 -18.02656555 92.74203491 C-18.02052745 85.36375982 -18.03283375 77.98567551 -18.05413562 70.60743296 C-18.07177121 64.26501237 -18.07774984 57.92265238 -18.07449788 51.58020818 C-18.07268775 47.79560303 -18.07529391 44.01113393 -18.08921242 40.22655106 C-18.10181786 36.66583712 -18.09982128 33.10541971 -18.08680153 29.54471016 C-18.08332062 27.62213997 -18.09459416 25.6995606 -18.10636902 23.77702332 C-18.05841996 15.88064302 -17.58998201 10.58945279 -12.27339172 4.45492554 C-8.14512596 0.93079623 -5.43295319 0.01798911 0 0 Z " fill="#6C6F72" transform="translate(888.7108917236328,-0.267425537109375)"/>
<path d="M0 0 C1.74536293 -0.01073296 1.74536293 -0.01073296 3.52598572 -0.02168274 C4.80395523 -0.02437164 6.08192474 -0.02706055 7.39862061 -0.02983093 C8.75714796 -0.03609698 10.11567361 -0.04274391 11.47419739 -0.04974365 C15.93694875 -0.07077051 20.39970039 -0.08114508 24.86248779 -0.09111023 C26.39989998 -0.09515837 27.93731199 -0.09927531 29.47472382 -0.10346031 C36.69834445 -0.12250935 43.92195487 -0.13674071 51.14559579 -0.14507228 C59.47863027 -0.15484256 67.81139896 -0.18115762 76.1443398 -0.22157317 C82.58861999 -0.25175381 89.03282408 -0.26654301 95.47717357 -0.26985329 C99.324474 -0.27220167 103.17149041 -0.28113404 107.0187149 -0.30631447 C110.64017763 -0.32963445 114.26117011 -0.333813 117.88268852 -0.32355309 C119.83870857 -0.32282349 121.79470494 -0.34188736 123.75062561 -0.36161804 C130.518206 -0.32161918 134.94472679 0.01159468 140.40936279 4.14717102 C144.55933236 8.99944312 145.53245569 14.48721407 145.54307556 20.66824341 C145.54947304 22.35256218 145.54947304 22.35256218 145.55599976 24.07090759 C145.55554657 25.29852814 145.55509338 26.52614868 145.55462646 27.79096985 C145.55798508 29.08728836 145.56134369 30.38360687 145.56480408 31.71920776 C145.57363403 35.2730513 145.5759818 38.82687075 145.57661986 42.38072419 C145.57733105 44.60265175 145.57946668 46.82457321 145.58211708 49.04649925 C145.59136785 56.80279809 145.59545239 64.55907974 145.59466553 72.31538391 C145.59406511 79.53738469 145.60461055 86.75931069 145.62040919 93.98129255 C145.63350098 100.18780423 145.63884872 106.39429152 145.63821012 112.60081691 C145.63795557 116.30492735 145.64078269 120.00897136 145.65138817 123.71306801 C145.6629016 127.84715987 145.6583123 131.9810851 145.65228271 136.1151886 C145.65790222 137.33673645 145.66352173 138.5582843 145.66931152 139.81684875 C145.6384792 148.13295186 145.50369888 154.87871105 139.40936279 161.14717102 C134.45692059 164.70277055 129.88217032 165.26886183 123.89538574 165.28761292 C122.79926468 165.29332306 121.70314362 165.2990332 120.57380676 165.30491638 C119.3809758 165.30603424 118.18814484 165.3071521 116.95916748 165.30830383 C115.06318062 165.31575119 115.06318062 165.31575119 113.12889099 165.323349 C109.66794985 165.33643365 106.20702808 165.34291032 102.74606609 165.34735966 C100.58056824 165.35029693 98.4150756 165.35440297 96.24958038 165.35886383 C89.46485474 165.3725288 82.68014111 165.38220018 75.89540267 165.38606572 C68.08089661 165.39054326 60.26656573 165.40808112 52.45211291 165.43706632 C46.40011325 165.45872992 40.3481627 165.4687725 34.2961247 165.47010684 C30.68693878 165.47115158 27.07791776 165.47698842 23.46877289 165.49492645 C19.43812036 165.5145707 15.40783147 165.51009961 11.37713623 165.50361633 C9.60003517 165.51743851 9.60003517 165.51743851 7.78703308 165.53153992 C0.46707481 165.49472761 -6.81235337 165.15884654 -12.74688721 160.42842102 C-13.19032471 159.84060852 -13.63376221 159.25279602 -14.09063721 158.64717102 C-14.55469971 158.05935852 -15.01876221 157.47154602 -15.49688721 156.86592102 C-17.67442886 153.44406986 -17.72129488 150.4621265 -17.73780823 146.51856995 C-17.74496353 145.34658051 -17.75211884 144.17459106 -17.75949097 142.96708679 C-17.76217987 141.67976654 -17.76486877 140.39244629 -17.76763916 139.06611633 C-17.77390516 137.6977369 -17.78055209 136.32935916 -17.78755188 134.96098328 C-17.80857924 130.46576621 -17.81895334 125.97054886 -17.82891846 121.47529602 C-17.83296657 119.92673983 -17.83708351 118.37818382 -17.84126854 116.82962799 C-17.86031767 109.55368161 -17.87454902 102.27774536 -17.88288051 95.00177884 C-17.8926509 86.60818469 -17.91896623 78.21485439 -17.9593814 69.8213532 C-17.98956125 63.33036428 -18.00435117 56.83945091 -18.00766152 50.3483932 C-18.01000999 46.47314796 -18.01894347 42.59818469 -18.0441227 38.72301483 C-18.06744129 35.07528827 -18.07162177 31.42802857 -18.06136131 27.78024673 C-18.06063165 25.80991361 -18.07969647 23.83960399 -18.09942627 21.86936951 C-18.05955365 15.07483175 -17.75899641 10.62180098 -13.59063721 5.14717102 C-9.14816269 1.02975561 -5.96520039 0.02516064 0 0 Z " fill="#E42427" transform="translate(553.5906372070313,-0.1471710205078125)"/>
<path d="M0 0 C0.65913391 0.00087616 1.31826782 0.00175232 1.99737549 0.00265503 C28.69848335 0.11942137 51.01864214 8.82514438 70.4375 27.375 C71.05238281 27.91511719 71.66726563 28.45523438 72.30078125 29.01171875 C86.6675576 42.12346636 95.35928623 63.58587823 96.66503906 82.70703125 C97.27505637 96.99448069 97.35905749 110.81659161 92.4375 124.375 C92.06367188 125.43074219 91.68984375 126.48648438 91.3046875 127.57421875 C83.37969905 148.06897365 69.47586738 164.46212367 50.4375 175.375 C49.52484375 175.89964844 48.6121875 176.42429687 47.671875 176.96484375 C23.87592847 189.74053636 -4.75598339 191.30617328 -30.48974609 184.00488281 C-54.83397678 176.60698939 -74.3890161 160.74023787 -86.5625 138.375 C-98.3954188 115.72028941 -100.07443913 88.24659978 -92.49609375 63.95703125 C-83.210944 38.30795421 -65.9507444 19.83407973 -41.52734375 8.16796875 C-28.01349055 1.92806292 -14.79813371 -0.02162645 0 0 Z M-40.53125 54.87109375 C-50.82227913 67.5567662 -55.3561214 82.64871403 -54.34375 98.8828125 C-52.977005 110.84183129 -48.71490989 120.76154584 -41.5625 130.375 C-40.44875 131.921875 -40.44875 131.921875 -39.3125 133.5 C-28.80420784 144.48594181 -14.79152834 150.21375108 0.25 150.6875 C15.425379 150.37581057 28.51454903 144.85102172 39.4375 134.375 C51.73334468 120.37797891 55.53973744 104.52636163 54.4375 86.375 C52.42217669 71.33335969 44.59227103 57.9649779 32.9921875 48.34765625 C10.35526829 31.56511269 -21.21476552 34.18985765 -40.53125 54.87109375 Z " fill="#000000" transform="translate(307.5625,614.625)"/>
<path d="M0 0 C13.2 0 26.4 0 40 0 C40 23.76 40 47.52 40 72 C64.09 72 88.18 72 113 72 C113 48.24 113 24.48 113 0 C126.2 0 139.4 0 153 0 C153 59.73 153 119.46 153 181 C139.8 181 126.6 181 113 181 C113 157.24 113 133.48 113 109 C88.91 109 64.82 109 40 109 C40 132.76 40 156.52 40 181 C26.8 181 13.6 181 0 181 C0 121.27 0 61.54 0 0 Z " fill="#000000" transform="translate(786,618)"/>
<path d="M0 0 C13.2 0 26.4 0 40 0 C40 23.76 40 47.52 40 72 C64.09 72 88.18 72 113 72 C113 48.24 113 24.48 113 0 C126.2 0 139.4 0 153 0 C153 59.73 153 119.46 153 181 C139.8 181 126.6 181 113 181 C113 157.24 113 133.48 113 109 C88.91 109 64.82 109 40 109 C40 132.76 40 156.52 40 181 C26.8 181 13.6 181 0 181 C0 121.27 0 61.54 0 0 Z " fill="#000000" transform="translate(22,618)"/>
<path d="M0 0 C13.2 0 26.4 0 40 0 C40.33 25.08 40.66 50.16 41 76 C46.41780485 70.63871468 46.41780485 70.63871468 51.484375 65.046875 C54.96810769 61.01164839 58.58809579 57.12335274 62.25 53.25 C68.55708081 46.5504786 74.79812306 39.79695958 81 33 C82.81190204 31.02028069 84.62428844 29.04101859 86.4375 27.0625 C86.88609375 26.57265625 87.3346875 26.0828125 87.796875 25.578125 C90.22875892 22.92453087 92.66700753 20.27705695 95.11328125 17.63671875 C95.89844116 16.78871704 95.89844116 16.78871704 96.69946289 15.92358398 C97.69116521 14.85318257 98.68375584 13.78360304 99.67749023 12.71508789 C100.13969971 12.21614014 100.60190918 11.71719238 101.078125 11.203125 C101.75358368 10.49200813 101.75358368 10.49200813 102.44268799 9.76652527 C104.049819 8.01448191 104.049819 8.01448191 105.40034485 5.96466064 C107.77547681 2.70595375 109.61045167 0.37635065 113.59402466 -0.70257568 C116.70537567 -0.92454444 119.72284883 -0.90048066 122.83984375 -0.78125 C123.96193741 -0.76993042 125.08403107 -0.75861084 126.24012756 -0.74694824 C129.80768941 -0.70233022 133.37116283 -0.60198469 136.9375 -0.5 C139.36257198 -0.45985463 141.78770724 -0.42335573 144.21289062 -0.390625 C150.14331099 -0.30264309 156.07136343 -0.16895041 162 0 C161.0444276 1.12258368 160.08775329 2.24422945 159.13061523 3.36547852 C158.33167091 4.30255394 158.33167091 4.30255394 157.5165863 5.25856018 C155.22342959 7.891707 152.73186533 10.2908732 150.22265625 12.71484375 C148.33367623 14.65694095 146.57308341 16.63817268 144.80859375 18.69140625 C140.04674315 24.17480711 134.84728754 29.20048574 129.671875 34.2890625 C126.16907073 37.75612387 122.74236279 41.22804602 119.53125 44.96875 C114.68703971 50.60544631 109.32068928 55.72387138 104.02734375 60.93359375 C99.13020382 65.78357022 94.45072561 70.73609124 90 76 C91.25110102 79.41361242 92.66034765 82.17364437 94.8359375 85.08203125 C95.39925781 85.84064453 95.96257812 86.59925781 96.54296875 87.38085938 C97.14753906 88.18330078 97.75210937 88.98574219 98.375 89.8125 C99.00277344 90.65490234 99.63054687 91.49730469 100.27734375 92.36523438 C102.17919509 94.9144836 104.08854019 97.4579503 106 100 C107.03401222 101.37878773 108.06787812 102.75768521 109.1015625 104.13671875 C110.55429976 106.07370177 112.00766758 108.01019615 113.46289062 109.9453125 C119.10193771 117.44918279 124.6578308 125.01410573 130.21777344 132.57666016 C133.1423075 136.55322524 136.07139564 140.52643221 139 144.5 C140.15495327 146.06770439 141.30990117 147.63541273 142.46484375 149.203125 C144.91396346 152.52707713 147.36473056 155.84980771 149.81640625 159.171875 C150.44353516 160.02201172 151.07066406 160.87214844 151.71679688 161.74804688 C152.90907674 163.36424847 154.10175681 164.98015493 155.29492188 166.59570312 C156.86725841 168.72759002 158.43549059 170.86236356 160 173 C160.49870605 173.68126953 160.99741211 174.36253906 161.51123047 175.06445312 C165 179.87942041 165 179.87942041 165 181 C158.18743192 181.28020118 151.37635994 181.47205114 144.55932617 181.60424805 C142.24365733 181.65937917 139.92836821 181.73431054 137.61401367 181.82983398 C117.33840683 182.64539399 117.33840683 182.64539399 112.62524414 178.78369141 C110.29765604 175.96742899 108.64425886 173.25451734 107 170 C106.01970947 168.60806493 105.01794819 167.23081664 103.98828125 165.875 C103.09264913 164.58589962 102.20076804 163.29418569 101.3125 162 C96.98557464 155.78526821 92.56960351 149.64783801 88.0625 143.5625 C78.88249106 131.15780336 69.77310738 118.69707905 61 106 C55.19791413 110.6416687 50.3123577 115.88472744 45.35546875 121.390625 C43.93902228 122.95975641 42.49473978 124.50526022 41 126 C40.66854413 128.4255024 40.66854413 128.4255024 40.68115234 131.27587891 C40.66128265 132.3768692 40.64141296 133.4778595 40.62094116 134.61221313 C40.60361435 136.40131607 40.60361435 136.40131607 40.5859375 138.2265625 C40.56657135 139.44451508 40.5472052 140.66246765 40.5272522 141.91732788 C40.46731785 145.8198133 40.42101529 149.72232799 40.375 153.625 C40.33683301 156.2656381 40.29778205 158.90626357 40.2578125 161.546875 C40.15993611 168.03118555 40.08047566 174.51535641 40 181 C26.8 181 13.6 181 0 181 C0 121.27 0 61.54 0 0 Z " fill="#000000" transform="translate(983,618)"/>
<path d="M0 0 C-1.34400328 3.76454649 -3.0282667 6.63191134 -5.4375 9.8125 C-9.07121736 14.69760805 -12.56096008 19.6634386 -16 24.6875 C-16.49298584 25.40719971 -16.98597168 26.12689941 -17.49389648 26.8684082 C-18.66381883 28.57810381 -19.83209146 30.28892811 -21 32 C-21.6084375 31.6596875 -22.216875 31.319375 -22.84375 30.96875 C-25.88319077 29.28811805 -28.93822241 27.6396216 -32 26 C-32.62632324 25.66307129 -33.25264648 25.32614258 -33.89794922 24.97900391 C-48.2741 17.30531986 -63.43783426 11.65442596 -79.9453125 15.7265625 C-84.41582064 17.54132323 -87.55794764 19.72640836 -90 24 C-91.57439585 28.61822782 -90.69984458 32.19461716 -89.47265625 36.75390625 C-85.6983096 42.51053575 -78.38087956 44.89858273 -72.0625 46.875 C-71.30598145 47.1212915 -70.54946289 47.36758301 -69.77001953 47.62133789 C-64.09698934 49.43287947 -58.3684333 51.00665288 -52.61987305 52.55859375 C-33.8392982 57.64549988 -11.46800179 63.98130839 -1 82 C6.45053312 97.09610638 7.28738225 113.98800842 2 130 C-2.78730898 142.84125233 -12.74913376 152.33644518 -24.84375 158.43359375 C-48.68975625 169.00741494 -77.73113517 168.19511189 -102.05126953 159.24511719 C-114.95807753 154.17946046 -127.93871452 147.70270717 -138 138 C-138.33 137.01 -138.66 136.02 -139 135 C-137.515625 132.7578125 -137.515625 132.7578125 -135.25 130.125 C-134.42757813 129.15691406 -133.60515625 128.18882812 -132.7578125 127.19140625 C-132.31211914 126.67594238 -131.86642578 126.16047852 -131.40722656 125.62939453 C-129.44718942 123.35991363 -127.51260866 121.06925243 -125.57714844 118.77880859 C-124.62712299 117.65596412 -123.67473918 116.53510972 -122.71972656 115.41650391 C-120.38374733 112.67526896 -118.11948705 109.91254016 -116 107 C-112.38334902 108.63137717 -109.38431489 110.85121138 -106.1875 113.1875 C-89.74280317 124.81630037 -72.14991917 129.91798527 -52 128 C-46.69506567 126.89921058 -42.67342845 125.09051064 -38.9375 121.125 C-36.86891096 117.78856607 -36.07976578 115.90852319 -36 112 C-36.80648688 108.34329469 -36.80648688 108.34329469 -38 105 C-38.33 104.01 -38.66 103.02 -39 102 C-40.75066584 100.88612057 -40.75066584 100.88612057 -43 100 C-43.85207031 99.60683594 -44.70414063 99.21367188 -45.58203125 98.80859375 C-54.65940816 94.95592229 -63.96593184 92.1882125 -73.4375 89.5 C-115.62620357 77.48386374 -115.62620357 77.48386374 -125.75390625 61.17578125 C-133.06608191 47.41479526 -134.48975885 30.82513062 -130.0234375 15.828125 C-124.89943946 1.66868003 -116.46045653 -8.38451693 -103.0859375 -15.5703125 C-69.85663055 -30.96515597 -28.11485534 -21.97563135 0 0 Z " fill="#000000" transform="translate(1551,637)"/>
<path d="M0 0 C-1.34400328 3.76454649 -3.0282667 6.63191134 -5.4375 9.8125 C-9.07121736 14.69760805 -12.56096008 19.6634386 -16 24.6875 C-16.49298584 25.40719971 -16.98597168 26.12689941 -17.49389648 26.8684082 C-18.66381883 28.57810381 -19.83209146 30.28892811 -21 32 C-21.6084375 31.6596875 -22.216875 31.319375 -22.84375 30.96875 C-25.88319077 29.28811805 -28.93822241 27.6396216 -32 26 C-32.62632324 25.66307129 -33.25264648 25.32614258 -33.89794922 24.97900391 C-48.2741 17.30531986 -63.43783426 11.65442596 -79.9453125 15.7265625 C-84.41582064 17.54132323 -87.55794764 19.72640836 -90 24 C-91.57439585 28.61822782 -90.69984458 32.19461716 -89.47265625 36.75390625 C-85.6983096 42.51053575 -78.38087956 44.89858273 -72.0625 46.875 C-71.30598145 47.1212915 -70.54946289 47.36758301 -69.77001953 47.62133789 C-64.09698934 49.43287947 -58.3684333 51.00665288 -52.61987305 52.55859375 C-33.8392982 57.64549988 -11.46800179 63.98130839 -1 82 C6.45053312 97.09610638 7.28738225 113.98800842 2 130 C-2.78730898 142.84125233 -12.74913376 152.33644518 -24.84375 158.43359375 C-48.68975625 169.00741494 -77.73113517 168.19511189 -102.05126953 159.24511719 C-114.95807753 154.17946046 -127.93871452 147.70270717 -138 138 C-138.33 137.01 -138.66 136.02 -139 135 C-137.515625 132.7578125 -137.515625 132.7578125 -135.25 130.125 C-134.42757813 129.15691406 -133.60515625 128.18882812 -132.7578125 127.19140625 C-132.31211914 126.67594238 -131.86642578 126.16047852 -131.40722656 125.62939453 C-129.44718942 123.35991363 -127.51260866 121.06925243 -125.57714844 118.77880859 C-124.62712299 117.65596412 -123.67473918 116.53510972 -122.71972656 115.41650391 C-120.38374733 112.67526896 -118.11948705 109.91254016 -116 107 C-112.38334902 108.63137717 -109.38431489 110.85121138 -106.1875 113.1875 C-89.74280317 124.81630037 -72.14991917 129.91798527 -52 128 C-46.69506567 126.89921058 -42.67342845 125.09051064 -38.9375 121.125 C-36.86891096 117.78856607 -36.07976578 115.90852319 -36 112 C-36.80648688 108.34329469 -36.80648688 108.34329469 -38 105 C-38.33 104.01 -38.66 103.02 -39 102 C-40.75066584 100.88612057 -40.75066584 100.88612057 -43 100 C-43.85207031 99.60683594 -44.70414063 99.21367188 -45.58203125 98.80859375 C-54.65940816 94.95592229 -63.96593184 92.1882125 -73.4375 89.5 C-115.62620357 77.48386374 -115.62620357 77.48386374 -125.75390625 61.17578125 C-133.06608191 47.41479526 -134.48975885 30.82513062 -130.0234375 15.828125 C-124.89943946 1.66868003 -116.46045653 -8.38451693 -103.0859375 -15.5703125 C-69.85663055 -30.96515597 -28.11485534 -21.97563135 0 0 Z " fill="#000000" transform="translate(1387,637)"/>
<path d="M0 0 C0.70515747 0.00021149 1.41031494 0.00042297 2.13684082 0.00064087 C28.86594507 0.08057512 50.37167979 8.69288538 70.4375 26.375 C70.0160098 31.20457516 67.70634048 33.68845105 64.4375 37 C63.43230368 38.05221728 62.42974511 39.10696003 61.4296875 40.1640625 C60.67510254 40.96118652 60.67510254 40.96118652 59.90527344 41.77441406 C56.91994483 45.02987221 54.22929372 48.52312665 51.5078125 52 C49.34931302 54.47616544 47.05747089 56.40317522 44.4375 58.375 C43.8290625 57.818125 43.220625 57.26125 42.59375 56.6875 C29.62598062 45.39791254 13.75624754 37.48239139 -3.8203125 38.09375 C-16.05251399 39.34833477 -29.13848654 44.07738514 -37.5625 53.375 C-48.38049806 66.68043362 -53.38499491 81.75813979 -52.3515625 98.8671875 C-50.91406914 111.04519727 -46.90784489 121.56741273 -39.5625 131.375 C-38.985 132.24125 -38.4075 133.1075 -37.8125 134 C-28.34065805 143.99805539 -14.83933835 149.31588835 -1.1875 149.6875 C14.76693021 149.50912749 28.17024143 143.44507596 40.1484375 133.109375 C42.4375 131.375 42.4375 131.375 47.4375 129.375 C55.6875 137.625 63.9375 145.875 72.4375 154.375 C65.62789248 167.99421504 46.25759659 178.36062867 32.4375 183.375 C5.29741988 191.61025332 -23.15497452 189.68263868 -48.51171875 176.88671875 C-69.8022727 165.22561796 -84.38679841 146.64384549 -91.9375 123.6875 C-99.42499854 96.55360044 -96.37079204 68.89172615 -82.87109375 44.29296875 C-78.85409907 37.62904486 -74.00951559 31.91204891 -68.5625 26.375 C-67.81355469 25.61316406 -67.06460938 24.85132813 -66.29296875 24.06640625 C-47.97078557 6.53423428 -24.89384305 -0.06891054 0 0 Z " fill="#000000" transform="translate(680.5625,614.625)"/>
<path d="M0 0 C49.83 0 99.66 0 151 0 C151 12.21 151 24.42 151 37 C132.85 37 114.7 37 96 37 C96 84.52 96 132.04 96 181 C82.8 181 69.6 181 56 181 C56 133.48 56 85.96 56 37 C37.52 37 19.04 37 0 37 C0 24.79 0 12.58 0 0 Z " fill="#000000" transform="translate(419,618)"/>
<path d="M0 0 C13.2 0 26.4 0 40 0 C40 59.73 40 119.46 40 181 C26.8 181 13.6 181 0 181 C0 121.27 0 61.54 0 0 Z " fill="#000000" transform="translate(1174,618)"/>
<path d="M0 0 C70.8358209 0 70.8358209 0 84 12 C90.53527659 20.25508622 90.82507907 28.81344692 90 39 C88.35895208 46.75862528 84.14163144 52.10588745 78 57 C75.75 58.21875 75.75 58.21875 74 59 C74.78503906 59.35191406 75.57007812 59.70382812 76.37890625 60.06640625 C85.36707054 64.29029205 92.56247255 68.73153233 96.33984375 78.28125 C98.30575456 86.37754542 98.35135574 95.57358563 94.30859375 103.015625 C88.23839448 112.22058389 80.58275283 117.33691757 69.875 120.3125 C47.06863449 124.35879066 22.26075439 122 0 122 C0 81.74 0 41.48 0 0 Z M14 14 C14 27.53 14 41.06 14 55 C19.713125 55.04125 25.42625 55.0825 31.3125 55.125 C33.98146362 55.15231201 33.98146362 55.15231201 36.7043457 55.18017578 C53.74289373 55.57248574 53.74289373 55.57248574 69 49 C72.9072223 44.6747561 75.86501491 39.96550057 76.16015625 34.0390625 C75.7063595 28.26145505 74.12387019 23.61079761 69.8125 19.625 C63.2169781 14.1367555 55.77916269 13.56944136 47.59375 13.70703125 C46.14579041 13.71339851 46.14579041 13.71339851 44.6685791 13.71989441 C41.6120917 13.73656903 38.55628515 13.77420008 35.5 13.8125 C33.41667625 13.82756134 31.33334207 13.8412472 29.25 13.85351562 C24.16619894 13.88387272 19.08385364 13.94261536 14 14 Z M14 67 C14 80.53 14 94.06 14 108 C20.81394349 108.06908617 27.62665843 108.12875718 34.44067383 108.16479492 C36.75582002 108.17982729 39.070938 108.2002587 41.38598633 108.22631836 C44.72484324 108.26294596 48.0633217 108.27978241 51.40234375 108.29296875 C52.42770737 108.30845261 53.45307098 108.32393646 54.50950623 108.33988953 C62.63671427 108.34176803 70.28185491 107.30862192 76.4375 101.5625 C77.39462891 100.69818359 77.39462891 100.69818359 78.37109375 99.81640625 C81.8373821 95.95112069 82.65742138 92.13867935 83 87 C82.37018133 81.74151394 80.95807521 77.66121957 77 74 C64.07222131 65.28008653 47.53158202 66.73279284 32.625 66.875 C26.47875 66.91625 20.3325 66.9575 14 67 Z " fill="#000000" transform="translate(24,836)"/>
<path d="M0 0 C15 0 15 0 19.140625 3.4453125 C20.22656469 4.97117484 21.26204529 6.53394174 22.25 8.125 C23.40679898 9.78958612 24.56435939 11.45364333 25.72265625 13.1171875 C26.27453613 13.94702148 26.82641602 14.77685547 27.39501953 15.63183594 C29.66105237 18.9753891 32.15457225 22.10702396 34.6875 25.25 C35.57820817 26.37911695 36.46754234 27.5093192 37.35546875 28.640625 C37.79036621 29.19298828 38.22526367 29.74535156 38.67333984 30.31445312 C41.41220308 33.79423078 44.1468253 37.27734312 46.88232422 40.75976562 C49.13507712 43.62734065 51.38868889 46.49422954 53.64453125 49.359375 C59.32725937 56.5797825 64.98223538 63.8211968 70.61450195 71.08105469 C76.04690051 78.07773102 81.52691811 85.03425942 87 92 C87.33 61.64 87.66 31.28 88 0 C92.62 0 97.24 0 102 0 C102 39.6 102 79.2 102 120 C90 120 90 120 86.3359375 116.95703125 C85.31036937 115.60392042 84.32434956 114.2201343 83.375 112.8125 C82.83633301 112.08434082 82.29766602 111.35618164 81.74267578 110.60595703 C80.64886716 109.123469 79.57030592 107.62960168 78.5078125 106.12451172 C76.76869708 103.67409359 74.94432796 101.30368947 73.09448242 98.93652344 C71.87035396 97.36905084 70.66370105 95.78798312 69.45703125 94.20703125 C66.8559742 90.80145877 64.21308007 87.42960435 61.5625 84.0625 C60.87583252 83.19020752 60.87583252 83.19020752 60.17529297 82.30029297 C59.24740379 81.1220986 58.31934346 79.94403901 57.39111328 78.76611328 C55.09125763 75.84628952 52.79584055 72.92298107 50.5 70 C49.5833549 68.83331639 48.66668823 67.66664973 47.75 66.5 C42.25 59.5 42.25 59.5 40.87426758 57.74902344 C39.96009985 56.58556677 39.04587484 55.42215511 38.1315918 54.25878906 C35.801213 51.29338101 33.47191885 48.32713143 31.14453125 45.359375 C30.67015625 44.75480469 30.19578125 44.15023437 29.70703125 43.52734375 C28.82253225 42.4000411 27.93837615 41.27246925 27.0546875 40.14453125 C23.07050568 35.06811267 19.03196996 30.03996245 15 25 C14.67 56.35 14.34 87.7 14 120 C9.38 120 4.76 120 0 120 C0 80.4 0 40.8 0 0 Z " fill="#000000" transform="translate(696,837)"/>
<path d="M0 0 C15 0 15 0 19.140625 3.4453125 C20.22656469 4.97117484 21.26204529 6.53394174 22.25 8.125 C23.40679898 9.78958612 24.56435939 11.45364333 25.72265625 13.1171875 C26.27453613 13.94702148 26.82641602 14.77685547 27.39501953 15.63183594 C29.66105237 18.9753891 32.15457225 22.10702396 34.6875 25.25 C35.57820817 26.37911695 36.46754234 27.5093192 37.35546875 28.640625 C37.79036621 29.19298828 38.22526367 29.74535156 38.67333984 30.31445312 C41.41220308 33.79423078 44.1468253 37.27734312 46.88232422 40.75976562 C49.13507712 43.62734065 51.38868889 46.49422954 53.64453125 49.359375 C59.32725937 56.5797825 64.98223538 63.8211968 70.61450195 71.08105469 C76.04690051 78.07773102 81.52691811 85.03425942 87 92 C87.33 61.64 87.66 31.28 88 0 C92.62 0 97.24 0 102 0 C102 39.6 102 79.2 102 120 C90 120 90 120 86.3359375 116.95703125 C85.31036937 115.60392042 84.32434956 114.2201343 83.375 112.8125 C82.83633301 112.08434082 82.29766602 111.35618164 81.74267578 110.60595703 C80.64886716 109.123469 79.57030592 107.62960168 78.5078125 106.12451172 C76.76869708 103.67409359 74.94432796 101.30368947 73.09448242 98.93652344 C71.87035396 97.36905084 70.66370105 95.78798312 69.45703125 94.20703125 C66.8559742 90.80145877 64.21308007 87.42960435 61.5625 84.0625 C60.87583252 83.19020752 60.87583252 83.19020752 60.17529297 82.30029297 C59.24740379 81.1220986 58.31934346 79.94403901 57.39111328 78.76611328 C55.09125763 75.84628952 52.79584055 72.92298107 50.5 70 C49.5833549 68.83331639 48.66668823 67.66664973 47.75 66.5 C42.25 59.5 42.25 59.5 40.87426758 57.74902344 C39.96009985 56.58556677 39.04587484 55.42215511 38.1315918 54.25878906 C35.801213 51.29338101 33.47191885 48.32713143 31.14453125 45.359375 C30.67015625 44.75480469 30.19578125 44.15023437 29.70703125 43.52734375 C28.82253225 42.4000411 27.93837615 41.27246925 27.0546875 40.14453125 C23.07050568 35.06811267 19.03196996 30.03996245 15 25 C14.67 56.35 14.34 87.7 14 120 C9.38 120 4.76 120 0 120 C0 80.4 0 40.8 0 0 Z " fill="#000000" transform="translate(458,837)"/>
<path d="M0 0 C10.3125 -0.0825 20.625 -0.165 31.25 -0.25 C36.09800293 -0.30462402 36.09800293 -0.30462402 41.04394531 -0.36035156 C43.63866514 -0.37204661 46.23339237 -0.38223649 48.828125 -0.390625 C49.4851239 -0.40107849 50.1421228 -0.41153198 50.81903076 -0.42230225 C64.70965083 -0.6318781 76.22126538 2.18358752 86.74609375 11.5546875 C93.8507092 18.96049612 95.59519178 28.17544482 95.47485352 38.14599609 C95.21806152 44.09418083 93.91004207 48.84041883 91 54 C90.649375 54.64324219 90.29875 55.28648437 89.9375 55.94921875 C84.63631931 64.43478923 75.26814568 68.30669271 66 71 C65.34 71 64.68 71 64 71 C72.07684773 82.05021379 80.24816328 93.02012091 88.58007812 103.87963867 C99 117.47975244 99 117.47975244 99 120 C92.94432249 121.17405992 86.95509709 122.03843762 81 120 C75.63794688 115.84281298 72.33930413 109.53185339 68.82861328 103.83740234 C65.62844187 98.87179592 61.94752717 94.27631096 58.3125 89.625 C56.97152962 87.89089943 55.63404875 86.15409242 54.30078125 84.4140625 C53.73528564 83.6813916 53.16979004 82.9487207 52.5871582 82.19384766 C51 80 51 80 49.77685547 77.26831055 C48.10957051 74.6275117 48.10957051 74.6275117 44.53833008 74.34057617 C43.11588831 74.29996345 41.69253078 74.28507339 40.26953125 74.29296875 C39.60417358 74.27834595 38.93881592 74.26372314 38.2532959 74.24865723 C35.7733976 74.20137133 33.29283092 74.19699004 30.8125 74.1875 C25.264375 74.125625 19.71625 74.06375 14 74 C14 89.18 14 104.36 14 120 C9.38 120 4.76 120 0 120 C0 80.4 0 40.8 0 0 Z M14 13 C14 28.84 14 44.68 14 61 C20.043125 61.04125 26.08625 61.0825 32.3125 61.125 C34.19622314 61.14320801 36.07994629 61.16141602 38.02075195 61.18017578 C51.32647792 61.25602988 62.30569079 60.53274222 73.75 53.25 C78.21540696 48.78459304 80.53016257 43.2894412 81.03515625 37.0078125 C80.92707135 30.83496373 79.0014501 25.71965909 75 21 C66.49756953 13.99010664 58.31129245 12.68406291 47.59375 12.8046875 C46.7368457 12.80670166 45.87994141 12.80871582 44.99707031 12.81079102 C41.83132485 12.82116407 38.66565639 12.84908583 35.5 12.875 C24.8575 12.936875 24.8575 12.936875 14 13 Z " fill="#000000" transform="translate(148,837)"/>
<path d="M0 0 C28.71 0 57.42 0 87 0 C87 4.29 87 8.58 87 13 C62.91 13 38.82 13 14 13 C14 26.2 14 39.4 14 53 C35.45 53 56.9 53 79 53 C79 57.29 79 61.58 79 66 C57.55 66 36.1 66 14 66 C14 79.53 14 93.06 14 107 C38.42 107 62.84 107 88 107 C88 111.29 88 115.58 88 120 C58.96 120 29.92 120 0 120 C0 80.4 0 40.8 0 0 Z " fill="#000000" transform="translate(1454,837)"/>
<path d="M0 0 C4.62 0 9.24 0 14 0 C19.80063958 11.3560995 25.18298217 22.85459594 30.375 34.5 C31.15262632 36.23698142 31.93062949 37.97379416 32.70898438 39.71044922 C34.32536098 43.31770461 35.94013138 46.92567231 37.55371094 50.53417969 C41.13911928 58.54923185 44.74294019 66.55599518 48.3470459 74.56265259 C49.48912925 77.10084065 50.62995938 79.6395887 51.77050781 82.1784668 C54.9390896 89.2283865 58.11555397 96.2737001 61.3515625 103.29296875 C61.83044922 104.33372559 62.30933594 105.37448242 62.80273438 106.44677734 C63.65049048 108.284104 64.50293889 110.11927713 65.36132812 111.95166016 C65.71904297 112.72687012 66.07675781 113.50208008 66.4453125 114.30078125 C66.90188232 115.27785034 66.90188232 115.27785034 67.36767578 116.2746582 C68 118 68 118 68 121 C63.05 121 58.1 121 53 121 C51.78612394 118.62770415 50.57898089 116.252315 49.375 113.875 C49.04371094 113.22917969 48.71242188 112.58335937 48.37109375 111.91796875 C44.90368175 105.04856761 42.05398681 98.12596923 39 91 C17.55 90.67 -3.9 90.34 -26 90 C-26.33 91.65 -26.66 93.3 -27 95 C-27.77536645 96.9931157 -28.60305535 98.96629935 -29.46875 100.921875 C-29.95730469 102.02917969 -30.44585937 103.13648438 -30.94921875 104.27734375 C-31.46097656 105.42332031 -31.97273438 106.56929687 -32.5 107.75 C-33.01175781 108.91144531 -33.52351563 110.07289063 -34.05078125 111.26953125 C-37.85770089 119.85770089 -37.85770089 119.85770089 -39 121 C-41.53049402 121.07313567 -44.03304837 121.09247527 -46.5625 121.0625 C-47.27341797 121.05798828 -47.98433594 121.05347656 -48.71679688 121.04882812 C-50.47790013 121.03700864 -52.23896036 121.01907263 -54 121 C-51.58696402 112.83635721 -48.01700665 105.26144612 -44.42428589 97.56903076 C-42.49817443 93.44315209 -40.58888754 89.30950657 -38.6796875 85.17578125 C-38.09147469 83.90299316 -38.09147469 83.90299316 -37.49137878 82.60449219 C-33.55373444 74.06601808 -29.73659594 65.47579858 -25.9375 56.875 C-20.41340092 44.37955795 -14.80962918 31.92328033 -9.125 19.5 C-8.77766815 18.74039978 -8.4303363 17.98079956 -8.07247925 17.19818115 C-7.09369615 15.05869522 -6.11362785 12.91980494 -5.1328125 10.78125 C-4.69958931 9.83543564 -4.69958931 9.83543564 -4.25761414 8.87051392 C-2.88572635 5.88561417 -1.46960217 2.93920433 0 0 Z M6 18 C5.56244385 18.98581055 5.1248877 19.97162109 4.67407227 20.98730469 C3.00787221 24.7408949 1.340903 28.49414322 -0.32617188 32.24734497 C-1.4328163 34.73945254 -2.5386873 37.23190238 -3.64453125 39.72436523 C-6.75943705 46.74087261 -9.87533726 53.75597306 -13.06640625 60.73828125 C-13.48801025 61.6622168 -13.90961426 62.58615234 -14.34399414 63.53808594 C-15.09482075 65.17769462 -15.85026023 66.81520161 -16.61108398 68.45019531 C-18.49729572 72.55351128 -18.49729572 72.55351128 -19 77 C-1.84 77 15.32 77 33 77 C30.76034976 70.09680209 30.76034976 70.09680209 28.08642578 63.46508789 C27.57041306 62.31327782 27.57041306 62.31327782 27.04397583 61.13819885 C26.68141693 60.34106979 26.31885803 59.54394073 25.9453125 58.72265625 C25.5618869 57.87126572 25.1784613 57.01987518 24.78341675 56.14268494 C23.97698623 54.35436017 23.16845486 52.56698139 22.35791016 50.78051758 C21.13079852 48.07528315 19.91056285 45.36703051 18.69140625 42.65820312 C13.07923653 30.21753917 13.07923653 30.21753917 7 18 C6.67 18 6.34 18 6 18 Z " fill="#000000" transform="translate(316,836)"/>
<path d="M0 0 C2.9140625 2.7265625 2.9140625 2.7265625 5 5 C2.36 8.63 -0.28 12.26 -3 16 C-6.35073391 14.32463305 -9.43777291 12.51772506 -12.625 10.5625 C-23.9019766 4.0487229 -36.00566672 1.72486722 -48.8828125 4.65625 C-54.19156114 6.74375794 -57.90466284 10.23539173 -61 15 C-62.79988396 20.39965189 -62.55551712 25.2100004 -60.875 30.625 C-54.1528564 40.48111596 -38.07319173 42.86876619 -27.41552734 45.515625 C-13.353115 49.02117292 -2.17464257 53.24910065 5.90625 65.88671875 C9.57958069 72.9841184 9.04918494 83.35360955 7.31640625 91.02734375 C3.67654519 100.82929323 -2.72867356 106.46765766 -12 111 C-27.8112583 117.58588879 -46.10940873 115.5295444 -61.73828125 109.48828125 C-69.23788483 106.06630644 -75.86227416 101.47418791 -82 96 C-81.41463247 92.33939179 -79.916761 90.45464836 -77.4375 87.75 C-76.79683594 87.04359375 -76.15617188 86.3371875 -75.49609375 85.609375 C-75.00238281 85.07828125 -74.50867188 84.5471875 -74 84 C-73.236875 84.515625 -72.47375 85.03125 -71.6875 85.5625 C-70.45842353 86.37513644 -69.22924053 87.18761175 -68 88 C-67.17628906 88.55558594 -66.35257813 89.11117187 -65.50390625 89.68359375 C-52.5826592 98.2061184 -40.45146632 101.48756353 -25 100 C-21.39127625 99.06914338 -18.26969794 97.76705569 -15 96 C-14.27683594 95.66871094 -13.55367187 95.33742188 -12.80859375 94.99609375 C-10.09750224 93.502944 -9.87717499 91.94480174 -9 89 C-8.77957031 88.33613281 -8.55914063 87.67226563 -8.33203125 86.98828125 C-6.60465742 80.98958303 -7.00340414 76.51891035 -10 71 C-16.99108273 62.9050621 -29.07207393 60.88871078 -39.0625 58.5 C-53.13962412 55.12616551 -66.83166561 50.93319612 -74.90625 38.1484375 C-78.60837688 30.87640255 -78.45889829 18.36285684 -76.0625 10.5625 C-71.3554228 0.86504929 -62.96135448 -5.46612023 -53 -9 C-34.62536596 -13.93201787 -15.98409693 -9.66939197 0 0 Z " fill="#000000" transform="translate(907,845)"/>
<path d="M0 0 C4.62 0 9.24 0 14 0 C14.01458252 2.2697168 14.02916504 4.53943359 14.04418945 6.87792969 C14.09476158 14.41772451 14.16139505 21.9573177 14.23571491 29.49691391 C14.28024456 34.06351674 14.31953793 38.63003392 14.34643555 43.19677734 C14.3726436 47.61251794 14.41316648 52.0279258 14.46318626 56.44345856 C14.47973761 58.11931435 14.49132431 59.79522754 14.49761391 61.47115326 C14.55770184 76.02429288 15.57136746 88.33949039 25.5234375 99.74609375 C32.12735992 106.20505202 41.00613419 108.2018608 50 108.5 C60.18994161 108.14048718 68.72190546 105.56805767 76.09375 98.31640625 C86.14934596 86.0972087 85.29892422 69.11230891 85.4140625 54.1015625 C85.43282815 52.52972459 85.45240529 50.95789618 85.4727478 49.38607788 C85.52350631 45.2993741 85.56342846 41.21263785 85.60089111 37.12579346 C85.64128909 32.93534695 85.69221576 28.74502884 85.7421875 24.5546875 C85.83827796 16.36987406 85.92191456 8.18500503 86 0 C90.62 0 95.24 0 100 0 C100.06812538 9.92813915 100.12301608 19.85611978 100.15543652 29.78444099 C100.17100676 34.39593404 100.19208449 39.00725709 100.22631836 43.61865234 C100.25922342 48.0796256 100.27691775 52.54043669 100.28463173 57.00152206 C100.29011993 58.6925397 100.30083469 60.38354977 100.31719017 62.07449722 C100.47958303 79.58064178 98.64069985 96.88852883 85.96484375 110.2578125 C82.29940432 113.50788404 78.38489305 115.84265815 74 118 C73.18660156 118.41507813 72.37320312 118.83015625 71.53515625 119.2578125 C58.80422123 124.60443132 40.49480063 124.13423729 27.62109375 119.26171875 C23.38856341 117.22430101 19.65255809 114.95512082 16 112 C15.07960938 111.28263672 15.07960938 111.28263672 14.140625 110.55078125 C6.13553857 103.51976507 0.73964233 91.48451618 -0.17869949 80.95011902 C-0.24346517 78.78828912 -0.2478589 76.63534594 -0.22705078 74.47265625 C-0.22734283 73.66194168 -0.22763489 72.85122711 -0.22793579 72.01594543 C-0.22655431 69.36468399 -0.21104944 66.7137117 -0.1953125 64.0625 C-0.19157816 62.21305495 -0.18873318 60.3636079 -0.18673706 58.51416016 C-0.17913377 53.6677292 -0.15951392 48.82141984 -0.1373291 43.97503662 C-0.11679922 39.02113489 -0.10772012 34.06721334 -0.09765625 29.11328125 C-0.07626469 19.40880101 -0.04216898 9.70441065 0 0 Z " fill="#000000" transform="translate(1211,837)"/>
<path d="M0 0 C31.35 0 62.7 0 95 0 C95 4.29 95 8.58 95 13 C81.8 13 68.6 13 55 13 C55 48.31 55 83.62 55 120 C50.38 120 45.76 120 41 120 C41 84.69 41 49.38 41 13 C27.47 13 13.94 13 0 13 C0 8.71 0 4.42 0 0 Z " fill="#000000" transform="translate(1333,837)"/>
<path d="M0 0 C31.35 0 62.7 0 95 0 C95 4.29 95 8.58 95 13 C81.8 13 68.6 13 55 13 C55 48.31 55 83.62 55 120 C50.38 120 45.76 120 41 120 C41 84.69 41 49.38 41 13 C27.47 13 13.94 13 0 13 C0 8.71 0 4.42 0 0 Z " fill="#000000" transform="translate(1093,837)"/>
<path d="M0 0 C31.35 0 62.7 0 95 0 C95 4.29 95 8.58 95 13 C81.8 13 68.6 13 55 13 C55 48.31 55 83.62 55 120 C50.38 120 45.76 120 41 120 C41 84.69 41 49.38 41 13 C27.47 13 13.94 13 0 13 C0 8.71 0 4.42 0 0 Z " fill="#000000" transform="translate(932,837)"/>
<path d="M0 0 C4.62 0 9.24 0 14 0 C14 39.6 14 79.2 14 120 C9.38 120 4.76 120 0 120 C0 80.4 0 40.8 0 0 Z " fill="#000000" transform="translate(1053,837)"/>
<path d="M0 0 C4.62 0 9.24 0 14 0 C14 39.6 14 79.2 14 120 C9.38 120 4.76 120 0 120 C0 80.4 0 40.8 0 0 Z " fill="#000000" transform="translate(648,837)"/>
<path d="M0 0 C4.62 0 9.24 0 14 0 C14 39.6 14 79.2 14 120 C9.38 120 4.76 120 0 120 C0 80.4 0 40.8 0 0 Z " fill="#000000" transform="translate(409,837)"/>
</svg>
