<?xml version="1.0" encoding="UTF-8"?>
<svg version="1.1" xmlns="http://www.w3.org/2000/svg" width="200" height="200">
<path d="M0 0 C66 0 132 0 200 0 C200 66 200 132 200 200 C134 200 68 200 0 200 C0 134 0 68 0 0 Z " fill="#000000" transform="translate(0,0)"/>
<path d="M0 0 C14.85 0 29.7 0 45 0 C45 14.85 45 29.7 45 45 C15.48203841 46.76603189 15.48203841 46.76603189 8.7890625 42.0234375 C5.14609464 38.72131158 2.34667689 35.32179661 0 31 C0.49453334 26.54013085 3.4587632 24.20261853 6.5625 21.25 C7.08263672 20.74339844 7.60277344 20.23679687 8.13867188 19.71484375 C9.41910084 18.46965595 10.70867554 17.23388498 12 16 C8.04 15.67 4.08 15.34 0 15 C0 10.05 0 5.1 0 0 Z " fill="#F7F7F7" transform="translate(67,78)"/>
<path d="M0 0 C4.95 0 9.9 0 15 0 C15.06058594 2.00964844 15.12117187 4.01929687 15.18359375 6.08984375 C15.24615449 8.02922669 15.30874857 9.96860873 15.37231445 11.90795898 C15.41571223 13.25914147 15.4573837 14.61038053 15.49731445 15.96166992 C15.55489952 17.90036701 15.61914298 19.83886276 15.68359375 21.77734375 C15.72025146 22.94515381 15.75690918 24.11296387 15.79467773 25.31616211 C15.70076188 27.91779795 15.70076188 27.91779795 17 29 C19.0708472 29.1584265 21.14678029 29.25124422 23.22265625 29.31640625 C25.11274414 29.37924805 25.11274414 29.37924805 27.04101562 29.44335938 C28.38150736 29.48317596 29.7220022 29.52288814 31.0625 29.5625 C32.40691523 29.60568042 33.7513166 29.64929456 35.09570312 29.69335938 C38.39700013 29.79985283 41.69848579 29.9004675 45 30 C45 34.95 45 39.9 45 45 C40.1924035 45.23138165 35.40446377 45.42957635 30.59570312 45.54931641 C28.9658024 45.5992442 27.33634131 45.66722112 25.70800781 45.75439453 C17.55961181 46.17931089 10.50529109 46.54513177 3.90625 41.09375 C-2.05399022 33.87872237 -1.09794517 25.70925883 -0.625 16.875 C-0.57474789 15.23451166 -0.52913656 13.59387426 -0.48828125 11.953125 C-0.38749536 7.96200382 -0.19212244 3.99187736 0 0 Z " fill="#FAFAFA" transform="translate(137,78)"/>
<path d="M0 0 C5.84840275 2.65592602 8.96517346 5.89713115 13 11 C13 16.28 13 21.56 13 27 C-1.85 27 -16.7 27 -32 27 C-32 22.05 -32 17.1 -32 12 C-24.41 12 -16.82 12 -9 12 C-8.34 10.68 -7.68 9.36 -7 8 C-5.83102663 6.5506846 -4.62060692 5.13400769 -3.375 3.75 C-2.74335937 3.04359375 -2.11171875 2.3371875 -1.4609375 1.609375 C-0.97882812 1.07828125 -0.49671875 0.5471875 0 0 Z " fill="#F7F7F7" transform="translate(50,96)"/>
<path d="M0 0 C14.85 0 29.7 0 45 0 C45 4.95 45 9.9 45 15 C37.41 15 29.82 15 22 15 C21.34 16.32 20.68 17.64 20 19 C18.2734375 20.921875 18.2734375 20.921875 16.375 22.75 C15.74335937 23.36359375 15.11171875 23.9771875 14.4609375 24.609375 C13.97882812 25.06828125 13.49671875 25.5271875 13 26 C7.18622445 23.37313352 4.02391123 20.02988904 0 15 C0 10.05 0 5.1 0 0 Z " fill="#F8F8F8" transform="translate(18,78)"/>
<path d="M0 0 C5.28 0 10.56 0 16 0 C16 15.18 16 30.36 16 46 C10.72 46 5.44 46 0 46 C0 30.82 0 15.64 0 0 Z " fill="#F0F0F0" transform="translate(116,77)"/>
<path d="M0 0 C0 3.96 0 7.92 0 12 C-1.98 12 -3.96 12 -6 12 C-7.875 10 -7.875 10 -9 8 C-7.6905332 6.66368764 -6.37734515 5.33102075 -5.0625 4 C-3.96615234 2.88625 -3.96615234 2.88625 -2.84765625 1.75 C-1 0 -1 0 0 0 Z " fill="#050505" transform="translate(96,96)"/>
</svg>
