<?xml version="1.0" encoding="UTF-8"?>
<svg version="1.1" xmlns="http://www.w3.org/2000/svg" width="600" height="400">
<path d="M0 0 C1.20494614 -0.00101212 1.20494614 -0.00101212 2.43423462 -0.00204468 C14.72725878 0.01435399 26.66947516 0.42141781 38.6875 3.25 C39.79230713 3.50740967 39.79230713 3.50740967 40.91943359 3.77001953 C63.75696536 9.31946536 63.75696536 9.31946536 70.6875 16.25 C70.79855014 18.77279527 70.84488947 21.26846784 70.84863281 23.79223633 C70.85359772 24.5826532 70.85856262 25.37307007 70.86367798 26.18743896 C70.87835344 28.81897846 70.88511481 31.45045744 70.890625 34.08203125 C70.89637744 35.912735 70.90213516 37.74343874 70.90789795 39.57414246 C70.91842688 43.42532635 70.92425536 47.27648928 70.92773438 51.12768555 C70.9331859 56.03546936 70.9571335 60.94297103 70.98570633 65.850667 C71.00445192 69.64022083 71.00954488 73.42970879 71.01107025 77.21930504 C71.01407671 79.02639984 71.0220365 80.83349404 71.03525543 82.64054298 C71.12432651 95.76714881 70.22609084 107.4669157 64 119.3125 C63.64969727 119.9916748 63.29939453 120.67084961 62.93847656 121.37060547 C59.73048205 127.4376497 56.01272457 132.91681006 51.6875 138.25 C51.25453613 138.78834473 50.82157227 139.32668945 50.37548828 139.88134766 C40.7472161 151.76839305 30.27604184 161.92253475 17.8125 170.8125 C17.1110083 171.31346191 16.4095166 171.81442383 15.68676758 172.33056641 C5.65801501 179.2802428 5.65801501 179.2802428 -0.765625 179.21484375 C-5.07772567 178.04183839 -8.33762563 176.23266996 -12.0625 173.8125 C-12.75988281 173.36801514 -13.45726562 172.92353027 -14.17578125 172.46557617 C-20.51452804 168.31927115 -25.86486565 163.51009284 -31.3125 158.25 C-32.68039617 157.07501226 -34.05486983 155.90761389 -35.4375 154.75 C-46.74872309 144.84118465 -55.9019162 132.47369612 -62.75 119.125 C-63.22675171 118.21306885 -63.22675171 118.21306885 -63.71313477 117.28271484 C-69.55008663 105.37024788 -69.85127272 93.10637291 -69.95703125 80.1328125 C-69.96676153 79.2356036 -69.97649181 78.3383947 -69.98651695 77.41399765 C-70.03697799 72.68028449 -70.06996454 67.94683381 -70.08813477 63.21289062 C-70.11030964 58.33615574 -70.1930794 53.46236784 -70.28925037 48.58661079 C-70.35263785 44.81870027 -70.37142909 41.05150607 -70.378088 37.28310776 C-70.38898794 35.48484287 -70.41660068 33.68659621 -70.46149635 31.8888588 C-70.78771105 17.90067377 -70.78771105 17.90067377 -67.16725159 13.84959412 C-64.57057584 12.24880972 -62.20530661 11.19658073 -59.3125 10.25 C-57.85017942 9.65254195 -56.38792426 9.05492373 -54.92578125 8.45703125 C-53.49719547 7.97701726 -52.06338801 7.51228961 -50.625 7.0625 C-49.85679932 6.8147583 -49.08859863 6.5670166 -48.29711914 6.31176758 C-32.38439468 1.32806703 -16.56999086 0.01248298 0 0 Z " fill="#0B0B07" transform="translate(300.3125,44.75)"/>
<path d="M0 0 C1.5625 2.1796875 1.5625 2.1796875 3 4.875 C4.97266728 8.55230912 6.63029886 10.57439617 10 13 C10 13.66 10 14.32 10 15 C8.20841511 15.02696365 6.41671527 15.04637917 4.625 15.0625 C3.62726563 15.07410156 2.62953125 15.08570312 1.6015625 15.09765625 C-1 15 -1 15 -3 14 C-2.12499183 15.34709162 -1.22409067 16.67738986 -0.3125 18 C0.18636719 18.7425 0.68523437 19.485 1.19921875 20.25 C2.90819999 22.27728387 2.90819999 22.27728387 5.70703125 22.25 C6.46371094 22.1675 7.22039062 22.085 8 22 C7.505 23.485 7.505 23.485 7 25 C8.32 25 9.64 25 11 25 C10.67 26.32 10.34 27.64 10 29 C10.5775 28.67 11.155 28.34 11.75 28 C14 27 14 27 18 27 C17.96519531 27.556875 17.93039062 28.11375 17.89453125 28.6875 C17.63677385 35.95380399 18.79791078 41.28973634 23.4375 47 C26.75989072 51.25026561 27.52600031 56.39683294 28.56811523 61.578125 C28.95644991 63.40659698 29.46939329 65.2076356 30 67 C33.06957098 68.02319033 35.22440323 68.13371939 38.4375 68.125 C39.38496094 68.12757813 40.33242188 68.13015625 41.30859375 68.1328125 C43.70140459 68.01473475 45.71336153 67.68112635 48 67 C48.21914063 65.94941406 48.43828125 64.89882812 48.6640625 63.81640625 C50.31752313 56.34468641 51.86572384 49.97186031 56.6328125 43.796875 C59.60174264 39.89485254 60.24202376 37.16499806 60.125 32.25 C60.10695313 31.26515625 60.08890625 30.2803125 60.0703125 29.265625 C60.04710937 28.51796875 60.02390625 27.7703125 60 27 C62.76276177 27.52268466 65.3260876 28.10869587 68 29 C67.505 27.02 67.505 27.02 67 25 C68.32 25 69.64 25 71 25 C70.505 23.515 70.505 23.515 70 22 C70.75667969 22.0825 71.51335937 22.165 72.29296875 22.25 C75.09180001 22.27728387 75.09180001 22.27728387 76.80078125 20.25 C77.29964844 19.5075 77.79851562 18.765 78.3125 18 C78.82425781 17.2575 79.33601563 16.515 79.86328125 15.75 C80.23839844 15.1725 80.61351562 14.595 81 14 C80.34 14.33 79.68 14.66 79 15 C77.29297265 15.06996014 75.58331997 15.08440154 73.875 15.0625 C72.96492188 15.05347656 72.05484375 15.04445313 71.1171875 15.03515625 C70.06917969 15.01775391 70.06917969 15.01775391 69 15 C70.51619066 11.74403296 72.41035331 9.31624705 74.7578125 6.59375 C76.58052883 4.25517056 77.78274845 1.69076658 79 -1 C83.46812212 -0.39346759 87.36424582 0.73931655 91.5625 2.375 C92.65691406 2.79523438 93.75132812 3.21546875 94.87890625 3.6484375 C100.50518418 6.08484822 100.50518418 6.08484822 103 8 C103.63110352 10.78051758 103.63110352 10.78051758 103.62890625 14.14453125 C103.63414307 15.37212158 103.63937988 16.59971191 103.64477539 17.86450195 C103.61762451 19.16734131 103.59047363 20.47018066 103.5625 21.8125 C103.55346649 22.47438324 103.54443298 23.13626648 103.53512573 23.81820679 C103.21540504 45.55954451 95.47145377 61.90774341 81 78 C80.31333252 78.78286377 80.31333252 78.78286377 79.61279297 79.58154297 C72.96055507 87.16344835 66.07298784 93.89912776 58 100 C57.03578125 100.73347656 56.0715625 101.46695313 55.078125 102.22265625 C43.17059843 111.08893617 43.17059843 111.08893617 37.94921875 110.875 C28.42624372 108.04964052 20.40200061 100.34770972 13 94 C12.19304687 93.31679687 11.38609375 92.63359375 10.5546875 91.9296875 C5.5677667 87.61895935 1.17684291 83.09289095 -3 78 C-3.41008301 77.51821289 -3.82016602 77.03642578 -4.24267578 76.54003906 C-15.50794859 63.28152339 -25.17679168 47.95491868 -25.09765625 30.0703125 C-25.09443359 28.78125 -25.09121094 27.4921875 -25.08789062 26.1640625 C-25.07953733 24.81770764 -25.07107241 23.47135348 -25.0625 22.125 C-25.0574783 20.75520996 -25.05291657 19.38541815 -25.04882812 18.015625 C-25.03707254 14.6770381 -25.02063964 11.33854185 -25 8 C-22.81623234 6.86722732 -20.62842872 5.74377211 -18.4375 4.625 C-17.82841797 4.30789062 -17.21933594 3.99078125 -16.59179688 3.6640625 C-4.58389021 -2.43519168 -4.58389021 -2.43519168 0 0 Z " fill="#F7C807" transform="translate(262,106)"/>
<path d="M0 0 C1.39316185 -0.00855011 1.39316185 -0.00855011 2.81446838 -0.01727295 C4.77693559 -0.0266858 6.73941833 -0.03324209 8.7019043 -0.03710938 C11.65117374 -0.04674357 14.59972393 -0.07777305 17.54882812 -0.109375 C31.83742165 -0.18994921 44.94104077 1.22952808 58.62890625 5.578125 C59.85351562 5.95710938 61.078125 6.33609375 62.33984375 6.7265625 C67.12641743 8.53227592 71.67815376 10.91524875 76.25390625 13.203125 C76.25390625 27.723125 76.25390625 42.243125 76.25390625 57.203125 C71.30390625 55.223125 66.35390625 53.243125 61.25390625 51.203125 C58.94390625 50.543125 56.63390625 49.883125 54.25390625 49.203125 C53.75890625 45.738125 53.75890625 45.738125 53.25390625 42.203125 C51.60390625 41.873125 49.95390625 41.543125 48.25390625 41.203125 C47.26390625 42.853125 46.27390625 44.503125 45.25390625 46.203125 C43.2328592 46.06028408 41.21207648 45.91370117 39.19140625 45.765625 C38.06605469 45.68441406 36.94070313 45.60320312 35.78125 45.51953125 C32.25390625 45.203125 32.25390625 45.203125 29.10546875 44.6796875 C23.63099321 44.00231832 18.20269964 44.01246938 12.69140625 44.015625 C11.53350586 44.01498047 10.37560547 44.01433594 9.18261719 44.01367188 C1.96393042 44.05824418 -4.90667108 44.44033113 -12.01171875 45.765625 C-15.00831857 46.24508097 -17.7179967 46.443314 -20.74609375 46.203125 C-22.62109375 43.703125 -22.62109375 43.703125 -23.74609375 41.203125 C-26.22109375 41.698125 -26.22109375 41.698125 -28.74609375 42.203125 C-29.07609375 44.513125 -29.40609375 46.823125 -29.74609375 49.203125 C-30.7825 49.54085937 -31.81890625 49.87859375 -32.88671875 50.2265625 C-34.25656335 50.67692237 -35.62635209 51.12745214 -36.99609375 51.578125 C-38.01896484 51.91070312 -38.01896484 51.91070312 -39.0625 52.25 C-41.80811485 53.15631947 -44.4605603 54.05841587 -47.04296875 55.3671875 C-48.74609375 56.203125 -48.74609375 56.203125 -51.74609375 56.203125 C-51.74609375 42.013125 -51.74609375 27.823125 -51.74609375 13.203125 C-35.61868682 5.13942153 -35.61868682 5.13942153 -26.80859375 3.328125 C-25.48891602 3.03035156 -25.48891602 3.03035156 -24.14257812 2.7265625 C-16.06093184 0.93735734 -8.27003213 0.04011602 0 0 Z " fill="#D31F26" transform="translate(288.74609375,50.796875)"/>
<path d="M0 0 C2.3125 0.0625 2.3125 0.0625 5 1 C5.67594123 2.55378698 6.34093812 4.11282586 6.96606445 5.68774414 C9.31001486 10.9296696 12.48466965 15.77090279 15.4375 20.6875 C16.16303788 21.90261784 16.88821269 23.11795254 17.61303711 24.33349609 C19.73676184 27.89216518 21.86805744 31.44624819 24 35 C25.06525353 36.77985853 26.13037403 38.55979669 27.1953125 40.33984375 C31.1200321 46.89244769 35.05195731 53.44045223 39.0141449 59.9704895 C40.41727311 62.28451095 41.81696891 64.60059879 43.21627808 66.91693115 C44.23351711 68.59776452 45.25551476 70.27571502 46.27758789 71.95361328 C46.89239014 72.97181152 47.50719238 73.99000977 48.140625 75.0390625 C48.96868652 76.40345459 48.96868652 76.40345459 49.81347656 77.79541016 C51 80 51 80 51 82 C51.66 82 52.32 82 53 82 C53.38696045 80.95211304 53.38696045 80.95211304 53.78173828 79.88305664 C55.12515272 76.70382194 56.74010218 73.84503398 58.4921875 70.87109375 C59.00506569 69.99759277 59.00506569 69.99759277 59.52830505 69.10644531 C60.6403793 67.21471654 61.75753542 65.3260488 62.875 63.4375 C63.65018772 62.12194636 64.42516981 60.80627152 65.19995117 59.49047852 C71.93300126 48.06753444 78.73893816 36.68850535 85.60693359 25.34619141 C86.70679581 23.52974737 87.80551741 21.71261218 88.90307617 19.89477539 C89.93053117 18.1931365 90.96044535 16.49297877 91.9934082 14.79467773 C94.90874343 9.96298943 97.54120519 5.07996286 100 0 C101.65 0.33 103.3 0.66 105 1 C104.67 2.65 104.34 4.3 104 6 C103.34 6 102.68 6 102 6 C104.09198601 9.63344938 106.40969778 12.99723157 108.9140625 16.3515625 C111.69222412 20.56877186 111.5104961 25.15757989 111 30 C108.11726249 42.08665849 100.23796588 51.90231855 89.71484375 58.4140625 C87.48356324 59.82287806 85.71787628 60.99133737 84 63 C83.33890938 66.43457234 83.50918258 69.55064421 84 73 C79.03475941 71.72982218 76.07601901 70.16167277 73 66 C72.04444259 60.78786869 72.71251567 57.89634272 75.4375 53.375 C78.40689252 49.26189409 81.79951305 46.74601494 86.14453125 44.19140625 C88.14924174 43.12734676 88.14924174 43.12734676 89 41 C86.69 40.67 84.38 40.34 82 40 C81.37508667 41.06190552 81.37508667 41.06190552 80.73754883 42.14526367 C71.66778126 57.54260252 62.48936272 72.85598324 53 88 C48.97483947 86.65827982 48.68324566 85.0832813 46.6875 81.375 C42.93496834 74.55055189 38.94101946 67.89200363 34.875 61.25 C33.70566091 59.33858342 32.53638845 57.42712608 31.3671875 55.515625 C30.5313916 54.14954102 30.5313916 54.14954102 29.67871094 52.75585938 C27.09681224 48.51727989 24.54576519 44.26035488 22 40 C19.03 40.495 19.03 40.495 16 41 C17.20724293 44.6217288 18.04455334 44.83534622 21.25 46.6875 C25.93557526 49.70659475 28.909796 52.78963642 31 58 C31.5288717 61.90042877 31.35801795 64.124845 29.875 67.75 C27.55587332 70.53295201 25.33668256 71.65112833 22 73 C21.34 73 20.68 73 20 73 C20.16242188 72.40574219 20.32484375 71.81148438 20.4921875 71.19921875 C20.97547144 68.02828435 20.9534573 66.09151306 20 63 C16.53459875 59.08649808 11.92347554 56.27339956 7.68798828 53.26220703 C1.63529966 48.73625965 -2.04025395 42.82675093 -5 36 C-5.4125 35.21625 -5.825 34.4325 -6.25 33.625 C-7.90509886 27.83215399 -7.85236228 22.10635362 -5.25 16.625 C-3.54498113 13.60936163 -1.54079906 11.36557154 1 9 C1.33 8.01 1.66 7.02 2 6 C1.01 5.67 0.02 5.34 -1 5 C-0.67 3.35 -0.34 1.7 0 0 Z " fill="#151107" transform="translate(249,117)"/>
<path d="M0 0 C5.40375 -0.0825 10.8075 -0.165 16.375 -0.25 C18.05899902 -0.28641602 19.74299805 -0.32283203 21.47802734 -0.36035156 C30.30422174 -0.47248853 38.93950022 -0.50229495 45.92114258 5.70922852 C49.72015625 9.71737298 51.96182382 13.71684866 52.02734375 19.3515625 C51.69913043 24.92277324 50.80243413 29.75592338 47 34 C40.59137056 39 40.59137056 39 37 39 C37.45439453 39.65597168 37.90878906 40.31194336 38.37695312 40.98779297 C40.42278225 43.94690119 42.4614663 46.91086181 44.5 49.875 C45.57314453 51.42380859 45.57314453 51.42380859 46.66796875 53.00390625 C47.34472656 53.99003906 48.02148438 54.97617187 48.71875 55.9921875 C49.34716797 56.90339355 49.97558594 57.81459961 50.62304688 58.75341797 C52 61 52 61 52 63 C47.3087645 64.15767586 43.65758746 64.40270927 39 63 C32.60171195 57.2314298 28.15700945 48.89252362 25 41 C20.71 41 16.42 41 12 41 C12 48.26 12 55.52 12 63 C8.04 63 4.08 63 0 63 C0 42.21 0 21.42 0 0 Z M12 11 C12 17.6 12 24.2 12 31 C15.01125 31.061875 18.0225 31.12375 21.125 31.1875 C22.06230957 31.21481201 22.99961914 31.24212402 23.96533203 31.27026367 C29.05682897 31.32069064 32.63185792 30.91889868 37 28 C39.45665197 24.31502204 39.70086491 21.28028214 39 17 C37.20636089 14.1899654 35.98119065 12.49059532 33 11 C31.40552536 10.91599471 29.80759455 10.89272533 28.2109375 10.90234375 C26.79941406 10.90717773 26.79941406 10.90717773 25.359375 10.91210938 C24.37453125 10.92048828 23.3896875 10.92886719 22.375 10.9375 C20.88613281 10.94426758 20.88613281 10.94426758 19.3671875 10.95117188 C16.91143278 10.96297839 14.45570894 10.98091418 12 11 Z " fill="#040707" transform="translate(397,291)"/>
<path d="M0 0 C0.598125 0.5775 1.19625 1.155 1.8125 1.75 C0.28541037 5.18595166 -1.78677045 7.86912454 -4.1875 10.75 C-6.89936026 9.71311225 -9.28961615 8.68524342 -11.75 7.125 C-17.86031013 4.68087595 -24.39700311 4.83674647 -30.625 6.875 C-36.53910088 11.20239089 -39.32569054 16.01549234 -40.9375 23 C-41.43082502 30.39987527 -39.53019032 36.76412956 -35.1875 42.75 C-29.92615578 46.74862161 -24.79646127 48.04083441 -18.1875 47.75 C-12.76417276 46.62690253 -12.76417276 46.62690253 -8.1875 43.75 C-7.95386119 41.90108054 -7.77446365 40.04511969 -7.625 38.1875 C-7.480625 36.393125 -7.33625 34.59875 -7.1875 32.75 C-11.8075 32.75 -16.4275 32.75 -21.1875 32.75 C-21.1875 29.45 -21.1875 26.15 -21.1875 22.75 C-12.6075 22.75 -4.0275 22.75 4.8125 22.75 C5.08281568 27.129114 5.28062976 31.4915973 5.4375 35.875 C5.52128906 37.1125 5.60507812 38.35 5.69140625 39.625 C5.78882862 43.24911231 5.75175037 46.24418349 4.8125 49.75 C1.85208954 52.73389767 -1.30696247 54.2309048 -5.1875 55.75 C-6.31744385 56.26336914 -6.31744385 56.26336914 -7.47021484 56.78710938 C-15.39965031 60.27516661 -25.91686283 60.01489089 -34.125 57.625 C-42.96603673 54.01878765 -48.13166516 48.31528279 -52.1875 39.75 C-55.77616049 30.60581703 -54.94286218 20.68861873 -51.1875 11.75 C-46.97784447 3.27511593 -40.52448781 -1.88940924 -31.9375 -5.6875 C-20.3720396 -7.42231906 -9.7696567 -6.89622826 0 0 Z " fill="#040707" transform="translate(317.1875,296.25)"/>
<path d="M0 0 C1.65322266 0.01740234 1.65322266 0.01740234 3.33984375 0.03515625 C4.99693359 0.04869141 4.99693359 0.04869141 6.6875 0.0625 C7.54214844 0.07410156 8.39679688 0.08570313 9.27734375 0.09765625 C11.69516177 5.73084719 14.11210605 11.364412 16.52832031 16.99829102 C17.34645301 18.90561483 18.16480418 20.81284494 18.98339844 22.7199707 C21.36151276 28.26062649 23.73544767 33.80303939 26.10302734 39.34820557 C26.89275435 41.19720933 27.68346123 43.04579487 28.47509766 44.89398193 C29.61077809 47.54756101 30.74160433 50.20315589 31.87109375 52.859375 C32.21595825 53.66309036 32.56082275 54.46680573 32.9161377 55.2948761 C35.27734375 60.8688151 35.27734375 60.8688151 35.27734375 63.09765625 C31.31734375 63.09765625 27.35734375 63.09765625 23.27734375 63.09765625 C18.40234375 53.72265625 18.40234375 53.72265625 17.27734375 48.09765625 C7.70734375 48.09765625 -1.86265625 48.09765625 -11.72265625 48.09765625 C-12.05265625 49.74765625 -12.38265625 51.39765625 -12.72265625 53.09765625 C-13.95161994 56.47854029 -15.34789431 59.7716193 -16.72265625 63.09765625 C-20.68265625 63.09765625 -24.64265625 63.09765625 -28.72265625 63.09765625 C-27.87586147 58.86368233 -26.83424767 55.67221472 -25.16796875 51.7421875 C-24.91036774 51.13091507 -24.65276672 50.51964264 -24.38735962 49.8898468 C-23.54528747 47.89468084 -22.69660455 45.90240493 -21.84765625 43.91015625 C-21.26294991 42.52930192 -20.67864413 41.14827791 -20.09472656 39.76708984 C-18.89849304 36.93927062 -17.69965668 34.11257491 -16.49902344 31.28662109 C-14.80522856 27.29703659 -13.12560599 23.301611 -11.44921875 19.3046875 C-10.45712364 16.94397159 -9.46494069 14.58329259 -8.47265625 12.22265625 C-8.00746582 11.11253174 -7.54227539 10.00240723 -7.06298828 8.85864258 C-6.63614746 7.84697021 -6.20930664 6.83529785 -5.76953125 5.79296875 C-5.39666992 4.90625488 -5.02380859 4.01954102 -4.63964844 3.10595703 C-3.27510285 0.11747141 -3.27510285 0.11747141 0 0 Z M2.27734375 14.09765625 C0.77167865 17.72032919 -0.72622171 21.34616174 -2.22265625 24.97265625 C-2.65191406 26.00519531 -3.08117187 27.03773438 -3.5234375 28.1015625 C-3.92949219 29.08769531 -4.33554687 30.07382812 -4.75390625 31.08984375 C-5.13095703 32.0010498 -5.50800781 32.91225586 -5.89648438 33.85107422 C-6.83770544 36.01155952 -6.83770544 36.01155952 -6.72265625 38.09765625 C-0.45265625 38.09765625 5.81734375 38.09765625 12.27734375 38.09765625 C11.54094811 34.41567805 10.8646878 31.80145903 9.4296875 28.453125 C8.89311523 27.19145508 8.89311523 27.19145508 8.34570312 25.90429688 C7.78592773 24.60782227 7.78592773 24.60782227 7.21484375 23.28515625 C6.83779297 22.40150391 6.46074219 21.51785156 6.07226562 20.60742188 C5.14485821 18.43564501 4.21310741 16.26584258 3.27734375 14.09765625 C2.94734375 14.09765625 2.61734375 14.09765625 2.27734375 14.09765625 Z " fill="#040707" transform="translate(355.72265625,290.90234375)"/>
<path d="M0 0 C1.65322266 0.01740234 1.65322266 0.01740234 3.33984375 0.03515625 C4.99693359 0.04869141 4.99693359 0.04869141 6.6875 0.0625 C7.54214844 0.07410156 8.39679688 0.08570313 9.27734375 0.09765625 C11.69516177 5.73084719 14.11210605 11.364412 16.52832031 16.99829102 C17.34645301 18.90561483 18.16480418 20.81284494 18.98339844 22.7199707 C21.36151276 28.26062649 23.73544767 33.80303939 26.10302734 39.34820557 C26.89275435 41.19720933 27.68346123 43.04579487 28.47509766 44.89398193 C29.61077809 47.54756101 30.74160433 50.20315589 31.87109375 52.859375 C32.21595825 53.66309036 32.56082275 54.46680573 32.9161377 55.2948761 C35.27734375 60.8688151 35.27734375 60.8688151 35.27734375 63.09765625 C30.98734375 63.09765625 26.69734375 63.09765625 22.27734375 63.09765625 C21.43994594 60.97425465 20.60754092 58.84888345 19.77734375 56.72265625 C19.31328125 55.53929687 18.84921875 54.3559375 18.37109375 53.13671875 C17.27734375 50.09765625 17.27734375 50.09765625 17.27734375 48.09765625 C7.70734375 48.09765625 -1.86265625 48.09765625 -11.72265625 48.09765625 C-12.05265625 49.74765625 -12.38265625 51.39765625 -12.72265625 53.09765625 C-13.95161994 56.47854029 -15.34789431 59.7716193 -16.72265625 63.09765625 C-20.68265625 63.09765625 -24.64265625 63.09765625 -28.72265625 63.09765625 C-27.81517489 58.56024945 -26.44744481 54.69230178 -24.66015625 50.47265625 C-24.35260406 49.73650589 -24.04505188 49.00035553 -23.72817993 48.24189758 C-22.73096128 45.85851526 -21.7270399 43.47802698 -20.72265625 41.09765625 C-20.03796166 39.46651043 -19.35355484 37.83524379 -18.66943359 36.20385742 C-16.6942283 31.49880176 -14.70942797 26.79783689 -12.72265625 22.09765625 C-12.19820624 20.85499564 -11.67378927 19.61232109 -11.14941406 18.36962891 C-9.88652174 15.38125774 -8.61912918 12.39488507 -7.34765625 9.41015625 C-6.98542969 8.55744141 -6.62320313 7.70472656 -6.25 6.82617188 C-3.37227408 0.12095675 -3.37227408 0.12095675 0 0 Z M2.27734375 14.09765625 C0.77167865 17.72032919 -0.72622171 21.34616174 -2.22265625 24.97265625 C-2.65191406 26.00519531 -3.08117187 27.03773438 -3.5234375 28.1015625 C-3.92949219 29.08769531 -4.33554688 30.07382812 -4.75390625 31.08984375 C-5.13095703 32.0010498 -5.50800781 32.91225586 -5.89648438 33.85107422 C-6.83770544 36.01155952 -6.83770544 36.01155952 -6.72265625 38.09765625 C-0.45265625 38.09765625 5.81734375 38.09765625 12.27734375 38.09765625 C11.54094811 34.41567805 10.8646878 31.80145903 9.4296875 28.453125 C8.89311523 27.19145508 8.89311523 27.19145508 8.34570312 25.90429688 C7.78592773 24.60782227 7.78592773 24.60782227 7.21484375 23.28515625 C6.83779297 22.40150391 6.46074219 21.51785156 6.07226562 20.60742188 C5.14485821 18.43564501 4.21310741 16.26584258 3.27734375 14.09765625 C2.94734375 14.09765625 2.61734375 14.09765625 2.27734375 14.09765625 Z " fill="#040707" transform="translate(178.72265625,290.90234375)"/>
<path d="M0 0 C1.671875 1.37109375 1.671875 1.37109375 3.984375 3.62109375 C2.67212952 7.55783019 1.06527173 9.84828669 -2.015625 12.62109375 C-5.05719966 11.5150666 -7.39714732 10.35636397 -10.078125 8.49609375 C-15.03930209 5.60207378 -20.46161951 5.85635586 -26.015625 6.62109375 C-31.96017175 9.4872145 -35.44901147 13.72149246 -37.828125 19.80859375 C-39.59575592 25.68767559 -39.52826111 31.24093384 -37 36.890625 C-34.00834161 41.99348536 -30.65376825 45.36197992 -25.265625 47.93359375 C-19.92910975 49.06247197 -15.36323701 49.01310728 -10.578125 46.17578125 C-9.04303214 45.09010702 -7.53358325 43.96680209 -6.05859375 42.80078125 C-4.015625 41.62109375 -4.015625 41.62109375 -1.92578125 41.75 C1.34077533 43.23965668 2.82595169 45.8031522 4.984375 48.62109375 C-3.02556252 56.42707453 -8.13682508 59.68572689 -19.390625 60.05859375 C-29.04345834 59.82853615 -36.17493476 57.32590565 -43.2578125 50.6875 C-51.1195119 41.4456356 -51.65358455 31.21269836 -51.015625 19.62109375 C-49.75488078 11.7212011 -45.21627359 5.01297306 -39.02734375 0.015625 C-27.41080702 -7.67610126 -11.63911055 -7.96241477 0 0 Z " fill="#040707" transform="translate(143.015625,295.37890625)"/>
<path d="M0 0 C4.74488616 -1.30867021 8.29752714 -1.57915135 13 0 C18.25659291 5.32636412 21.53731861 12.44248774 25 19 C26.3162235 21.34362217 27.65721013 23.6714444 29 26 C33.06263397 21.31764221 36.05472595 16.07080321 39.1875 10.75 C40.26307564 8.93155335 41.33983416 7.11380565 42.41796875 5.296875 C42.89000732 4.49604492 43.3620459 3.69521484 43.84838867 2.87011719 C45 1 45 1 46 0 C48.18639453 -0.07258946 50.37500389 -0.08373783 52.5625 -0.0625 C54.35880859 -0.04896484 54.35880859 -0.04896484 56.19140625 -0.03515625 C57.11824219 -0.02355469 58.04507813 -0.01195312 59 0 C57.74249015 3.31975321 56.3261006 6.33102495 54.49609375 9.37109375 C54.00665283 10.18481445 53.51721191 10.99853516 53.01293945 11.83691406 C52.49304443 12.69510742 51.97314941 13.55330078 51.4375 14.4375 C50.90535889 15.3356543 50.37321777 16.23380859 49.82495117 17.15917969 C47.46118346 21.1154363 45.1180018 24.97513136 42.2421875 28.58203125 C34.08435112 39.21869573 34.7333326 50.00796439 35 63 C31.04 63 27.08 63 23 63 C23.14824219 61.63875 23.29648437 60.2775 23.44921875 58.875 C24.58613734 39.15862 15.61714457 25.89914857 5.06884766 10.12426758 C0 2.46955393 0 2.46955393 0 0 Z " fill="#040707" transform="translate(449,291)"/>
<path d="M0 0 C3.96 0 7.92 0 12 0 C12 17.49 12 34.98 12 53 C22.56 53 33.12 53 44 53 C44 56.3 44 59.6 44 63 C29.48 63 14.96 63 0 63 C0 42.21 0 21.42 0 0 Z " fill="#040707" transform="translate(219,291)"/>
<path d="M0 0 C0.86625 0.04125 1.7325 0.0825 2.625 0.125 C5.00036547 0.125 7.37653255 0.0949387 9.75 0 C12.625 0.125 12.625 0.125 14.625 2.125 C18.22179066 1.80173447 18.22179066 1.80173447 21.625 1.125 C22.57876567 4.33282086 22.74121181 7.20687396 22.72265625 10.546875 C22.71943359 11.57167969 22.71621094 12.59648438 22.71289062 13.65234375 C22.70032227 15.24755859 22.70032227 15.24755859 22.6875 16.875 C22.68298828 17.95394531 22.67847656 19.03289062 22.67382812 20.14453125 C22.66205727 22.80474383 22.64561399 25.46484365 22.625 28.125 C21.96765869 27.9813501 21.31031738 27.8377002 20.63305664 27.68969727 C16.05207365 26.72406288 11.76804129 25.87367411 7.0625 26.0625 C5.584138 26.11554575 4.10416548 26.14591749 2.625 26.125 C2.295 25.795 1.965 25.465 1.625 25.125 C0.965 25.269375 0.305 25.41375 -0.375 25.5625 C-3.0640999 26.06670623 -5.34239709 26.182331 -8.0625 26.16015625 C-8.87074219 26.15508057 -9.67898438 26.15000488 -10.51171875 26.14477539 C-11.12660156 26.13824951 -11.74148438 26.13172363 -12.375 26.125 C-12.43300828 22.52090081 -12.46859869 18.91692149 -12.5 15.3125 C-12.51675781 14.28833984 -12.53351563 13.26417969 -12.55078125 12.20898438 C-12.55722656 11.22607422 -12.56367188 10.24316406 -12.5703125 9.23046875 C-12.58078613 8.32449951 -12.59125977 7.41853027 -12.60205078 6.48510742 C-12.375 4.125 -12.375 4.125 -10.375 1.125 C-10.045 1.455 -9.715 1.785 -9.375 2.125 C-6.91690002 2.3750773 -6.91690002 2.3750773 -4.375 2.125 C-2.375 0.125 -2.375 0.125 0 0 Z " fill="#170C09" transform="translate(333.375,60.875)"/>
<path d="M0 0 C1.918125 0.2784375 1.918125 0.2784375 3.875 0.5625 C4.205 0.2325 4.535 -0.0975 4.875 -0.4375 C7.21444736 -0.15019945 9.5489143 0.18186779 11.875 0.5625 C11.875 1.2225 11.875 1.8825 11.875 2.5625 C14.185 1.9025 16.495 1.2425 18.875 0.5625 C19.87505304 3.56265912 19.99075585 5.53673756 19.97265625 8.66796875 C19.96943359 9.65087891 19.96621094 10.63378906 19.96289062 11.64648438 C19.95032227 13.18272461 19.95032227 13.18272461 19.9375 14.75 C19.93298828 15.78576172 19.92847656 16.82152344 19.92382812 17.88867188 C19.9120401 20.44667266 19.89558515 23.00455733 19.875 25.5625 C19.2358667 25.55726318 18.5967334 25.55202637 17.93823242 25.54663086 C14.97966537 25.5255573 12.02111421 25.5127448 9.0625 25.5 C8.05767578 25.49162109 7.05285156 25.48324219 6.01757812 25.47460938 C-0.75368824 25.45283681 -7.39410926 25.8255169 -14.125 26.5625 C-14.18299124 22.79173111 -14.21859306 19.02107666 -14.25 15.25 C-14.26675781 14.17814453 -14.28351563 13.10628906 -14.30078125 12.00195312 C-14.30722656 10.97392578 -14.31367188 9.94589844 -14.3203125 8.88671875 C-14.33078613 7.93885498 -14.34125977 6.99099121 -14.35205078 6.0144043 C-14.125 3.5625 -14.125 3.5625 -12.125 0.5625 C-10.9803125 0.871875 -10.9803125 0.871875 -9.8125 1.1875 C-5.8313782 1.74300537 -4.20776527 -0.75305024 0 0 Z " fill="#0B0907" transform="translate(261.125,61.4375)"/>
<path d="M0 0 C7 0 7 0 9.4765625 2.16015625 C10.18554688 3.11792969 10.89453125 4.07570312 11.625 5.0625 C12.33914062 6.00222656 13.05328125 6.94195312 13.7890625 7.91015625 C16.19465968 11.27204207 18.59721628 14.63610279 21 18 C21.33 12.06 21.66 6.12 22 0 C24.64 0 27.28 0 30 0 C30 11.55 30 23.1 30 35 C22 35 22 35 19.8984375 33.34765625 C19.39570313 32.59355469 18.89296875 31.83945312 18.375 31.0625 C17.81425781 30.25039063 17.25351563 29.43828125 16.67578125 28.6015625 C15.84626953 27.31378906 15.84626953 27.31378906 15 26 C14.12408203 24.71222656 14.12408203 24.71222656 13.23046875 23.3984375 C11.79594994 21.28193434 10.39464332 19.14298852 9 17 C8.67 22.94 8.34 28.88 8 35 C5.36 35 2.72 35 0 35 C0 23.45 0 11.9 0 0 Z " fill="#040707" transform="translate(134,243)"/>
<path d="M0 0 C5.12798043 2.87244017 8.01552419 6.5168372 9.640625 12.1640625 C10.5721843 17.71460336 9.82857609 22.47338116 7.01953125 27.3671875 C3.80078915 31.56158231 0.12494241 33.79758163 -5.11328125 34.5703125 C-10.53354954 34.74730085 -14.83562966 34.39530917 -19.359375 31.1640625 C-25.04978757 25.34960824 -25.71104571 21.35504175 -25.640625 13.37109375 C-25.16007965 7.89154193 -22.73291693 5.40360034 -18.796875 1.8515625 C-13.40412171 -1.88188209 -6.13287683 -2.17290669 0 0 Z M-14.796875 8.6640625 C-16.93946556 12.0922074 -17.57586979 15.13084484 -17.359375 19.1640625 C-15.78506736 22.78497006 -14.67054574 23.95661534 -11.359375 26.1640625 C-7.07454623 26.71950327 -5.06241958 26.62777275 -1.421875 24.2265625 C0.98639089 20.65065254 1.38582192 18.55874552 1.1171875 14.32421875 C0.29932767 10.61703442 -1.22101187 9.19092202 -4.359375 7.1640625 C-8.24181527 6.30300644 -11.34060538 6.53712735 -14.796875 8.6640625 Z " fill="#040707" transform="translate(464.359375,243.8359375)"/>
<path d="M0 0 C4.2384375 -0.0928125 4.2384375 -0.0928125 8.5625 -0.1875 C9.43849854 -0.21481201 10.31449707 -0.24212402 11.21704102 -0.27026367 C16.58845064 -0.32667712 20.28759639 0.35558688 25 3 C27.19657612 5.16064031 27.88809752 6.37999978 28.43359375 9.40234375 C28.44030545 13.75823721 28.41246118 16.31256469 26.125 20.125 C24 22 24 22 22 22 C22.5053125 22.77085937 23.010625 23.54171875 23.53125 24.3359375 C24.1809375 25.33882813 24.830625 26.34171875 25.5 27.375 C26.1496875 28.37273437 26.799375 29.37046875 27.46875 30.3984375 C29 33 29 33 29 35 C25.81028144 35.65096297 23.16362158 35.85271459 20 35 C17.81378869 32.58093778 16.28791841 30.13058077 14.703125 27.28515625 C12.95792834 24.41175188 12.95792834 24.41175188 8 24 C8 27.63 8 31.26 8 35 C5.36 35 2.72 35 0 35 C0 23.45 0 11.9 0 0 Z M8 8 C8 10.97 8 13.94 8 17 C13.02254631 17.2954439 15.89542386 16.98514628 20 14 C19.65555119 11.52733235 19.65555119 11.52733235 19 9 C15.57067929 7.28533964 11.78283935 7.94595944 8 8 Z " fill="#040707" transform="translate(264,243)"/>
<path d="M0 0 C8.25 0 16.5 0 25 0 C25 2.64 25 5.28 25 8 C19.39 8 13.78 8 8 8 C8 9.98 8 11.96 8 14 C12.95 14 17.9 14 23 14 C23 16.31 23 18.62 23 21 C18.05 21 13.1 21 8 21 C8 22.98 8 24.96 8 27 C13.61 27 19.22 27 25 27 C25 29.64 25 32.28 25 35 C16.75 35 8.5 35 0 35 C0 23.45 0 11.9 0 0 Z " fill="#040707" transform="translate(229,243)"/>
<path d="M0 0 C2.64 0 5.28 0 8 0 C8.01981934 0.68102783 8.03963867 1.36205566 8.06005859 2.0637207 C8.15526983 5.14703917 8.26496466 8.22967649 8.375 11.3125 C8.4059375 12.38435547 8.436875 13.45621094 8.46875 14.56054688 C8.50742188 15.58857422 8.54609375 16.61660156 8.5859375 17.67578125 C8.6173584 18.62364502 8.6487793 19.57150879 8.68115234 20.5480957 C8.8489051 23.2530269 8.8489051 23.2530269 11 26 C14.58357241 26.25015873 14.58357241 26.25015873 18 26 C19.83315508 22.84825969 20.28752252 20.42435429 20.4140625 16.796875 C20.45273438 15.8171875 20.49140625 14.8375 20.53125 13.828125 C20.5621875 12.81234375 20.593125 11.7965625 20.625 10.75 C20.66367188 9.71875 20.70234375 8.6875 20.7421875 7.625 C20.83631674 5.0835106 20.92194979 2.54202567 21 0 C23.64 0 26.28 0 29 0 C29.08770383 3.85402129 29.14062735 7.70778291 29.1875 11.5625 C29.21263672 12.64853516 29.23777344 13.73457031 29.26367188 14.85351562 C29.32005843 21.0372412 29.09639072 25.58683237 26 31 C22.36341307 34.54567225 19.4289894 35.27677208 14.5 35.4375 C9.99417993 35.24771682 6.6964027 34.77230202 3 32 C-1.21746277 26.14964784 -0.33287849 19.50624876 -0.1875 12.625 C-0.17396484 11.41199219 -0.16042969 10.19898438 -0.14648438 8.94921875 C-0.11124582 5.96568794 -0.06197525 2.98307542 0 0 Z " fill="#040707" transform="translate(96,243)"/>
<path d="M0 0 C2.69850851 1.0710575 4.61219842 2.30200776 7 4 C5.68 6.31 4.36 8.62 3 11 C-0.3 10.01 -3.6 9.02 -7 8 C-7.66 8.66 -8.32 9.32 -9 10 C-9 10.66 -9 11.32 -9 12 C-8.26394531 12.17015625 -7.52789062 12.3403125 -6.76953125 12.515625 C3.77956691 15.13548029 3.77956691 15.13548029 7 19 C8.26515462 23.63890027 8.3496784 26.77057888 6 31 C3.63244022 33.88224669 1.55824884 34.83116664 -2.19921875 35.23828125 C-8.62836029 35.43004528 -12.46740247 34.27857631 -18 31 C-18 27 -18 27 -16 24 C-13.32668786 24.45828208 -11.00381336 24.99837932 -8.5 26.0625 C-5.82226817 27.06664944 -3.83421974 27.16195541 -1 27 C-1 25.68 -1 24.36 -1 23 C-1.73605469 22.82984375 -2.47210938 22.6596875 -3.23046875 22.484375 C-13.88855112 19.83745362 -13.88855112 19.83745362 -17 16 C-18.31945155 12.02494343 -18.44785272 9.0607038 -16.8125 5.1875 C-11.95982292 -0.66917924 -7.31088119 -0.9782165 0 0 Z " fill="#040707" transform="translate(319,243)"/>
<path d="M0 0 C-4.105879 5.73212912 -8.22455719 8.91236356 -15 11 C-17.9375 11.375 -17.9375 11.375 -20 11 C-20.66 10.34 -21.32 9.68 -22 9 C-25.28764015 8.67942129 -25.28764015 8.67942129 -29 8.75 C-30.8871875 8.74226563 -30.8871875 8.74226563 -32.8125 8.734375 C-36.09282361 8.66219545 -36.09282361 8.66219545 -38 11 C-44.20885714 11.61830943 -48.54064697 9.45614883 -53.2734375 5.66796875 C-55.09155318 3.91155383 -56.54231019 2.06133437 -58 0 C-39.73750686 -5.21785518 -18.26249314 -5.21785518 0 0 Z " fill="#F4C607" transform="translate(330,102)"/>
<path d="M0 0 C1.04285156 -0.00257812 2.08570313 -0.00515625 3.16015625 -0.0078125 C5.9375 0.125 5.9375 0.125 8.9375 1.125 C12.62370124 6.54527337 14.64751899 11.59282525 13.9375 18.125 C13.2775 18.125 12.6175 18.125 11.9375 18.125 C11.6075 19.115 11.2775 20.105 10.9375 21.125 C7.19086053 24.00032796 3.64914748 26.47830329 -1.0625 27.125 C-5.1982929 25.5924473 -9.06385555 23.84488767 -11.328125 19.9453125 C-11.57046875 19.34460938 -11.8128125 18.74390625 -12.0625 18.125 C-12.7225 18.125 -13.3825 18.125 -14.0625 18.125 C-14.59633597 11.98588631 -13.34612474 6.4152843 -10.0625 1.125 C-6.88772333 -0.28288323 -3.43023593 -0.0085012 0 0 Z " fill="#261B08" transform="translate(301.0625,60.875)"/>
<path d="M0 0 C2.64 0 5.28 0 8 0 C11.03803175 6.54469606 13.6083491 13.19397217 16 20 C18.79308415 13.37608502 21.53267983 6.75266574 24 0 C26.97 0 29.94 0 33 0 C32.32433393 4.08692084 31.05513328 7.69581938 29.53125 11.54296875 C29.29088013 12.15263992 29.05051025 12.7623111 28.80285645 13.39045715 C28.03914864 15.3243789 27.26955631 17.25589921 26.5 19.1875 C25.9827084 20.49660081 25.46577764 21.80584427 24.94921875 23.11523438 C21.18910274 32.62179453 21.18910274 32.62179453 20 35 C17.36 35 14.72 35 12 35 C10.28235465 30.66172729 8.5736364 26.32008461 6.87304688 21.97509766 C6.29344986 20.49790326 5.71143754 19.02165414 5.12695312 17.54638672 C4.2865734 15.42399915 3.45497793 13.29834824 2.625 11.171875 C2.23127197 10.18571198 2.23127197 10.18571198 1.82958984 9.17962646 C0.53765549 5.84375404 0 3.64338978 0 0 Z " fill="#040707" transform="translate(189,243)"/>
<path d="M0 0 C8.25 0 16.5 0 25 0 C25 2.64 25 5.28 25 8 C19.39 8 13.78 8 8 8 C8 9.98 8 11.96 8 14 C12.95 14 17.9 14 23 14 C23 16.64 23 19.28 23 22 C18.05 22 13.1 22 8 22 C8 26.29 8 30.58 8 35 C5.36 35 2.72 35 0 35 C0 23.45 0 11.9 0 0 Z " fill="#040707" transform="translate(481,243)"/>
<path d="M0 0 C3.15809785 -0.56845761 5.86615151 -0.77195942 9 0 C11.59558616 2.6935328 13.20663368 5.74254118 15 9 C15.66 9.66 16.32 10.32 17 11 C17.40089844 10.2059375 17.80179687 9.411875 18.21484375 8.59375 C22.80274686 0.35425053 22.80274686 0.35425053 26.46875 -0.73046875 C28.73574334 -0.69101159 30.78984002 -0.49615836 33 0 C31.71104779 3.733031 29.87909738 6.75124635 27.67358398 10.01342773 C22.10630685 18.39788125 20.64319979 24.93823405 21 35 C18.03 35 15.06 35 12 35 C12.05542969 34.12601562 12.11085938 33.25203125 12.16796875 32.3515625 C12.22969239 20.57469105 7.65261825 13.13779717 0.99389648 3.64135742 C0 2 0 2 0 0 Z " fill="#040707" transform="translate(384,243)"/>
<path d="M0 0 C9.24 0 18.48 0 28 0 C28 2.64 28 5.28 28 8 C24.7 8 21.4 8 18 8 C18 16.91 18 25.82 18 35 C15.36 35 12.72 35 10 35 C10 26.09 10 17.18 10 8 C6.7 8 3.4 8 0 8 C0 5.36 0 2.72 0 0 Z " fill="#040707" transform="translate(351,243)"/>
<path d="M0 0 C0.66 0 1.32 0 2 0 C6.01825758 5.39370027 5.69541182 10.53913905 5 17 C2.32832661 29.09377489 -7.40383057 36.85393125 -16.71484375 44.1875 C-20.30739422 47.03697593 -21.28867337 48.49493137 -22 53 C-22.99 52.67 -23.98 52.34 -25 52 C-25.59581111 47.91443812 -25.84324438 44.45440316 -23.72265625 40.796875 C-19.80393492 36.14061655 -15.33213672 32.8807388 -10 30 C-10.61277612 27.03824877 -11.25372522 25.61941217 -13 23 C-11.948125 22.319375 -11.948125 22.319375 -10.875 21.625 C-4.37446602 15.68972984 -1.38005296 8.55632835 0 0 Z " fill="#D21F25" transform="translate(351,131)"/>
<path d="M0 0 C0.66 0 1.32 0 2 0 C2.24234375 0.86882812 2.4846875 1.73765625 2.734375 2.6328125 C5.42125604 11.8715496 7.94563444 17.33754364 15 24 C14.484375 24.4125 13.96875 24.825 13.4375 25.25 C11.76709505 26.87281894 11.76709505 26.87281894 12.14453125 28.9296875 C13.28807875 31.69717688 14.68748225 32.37312701 17.25 33.875 C21.49535348 36.59013038 24.36307128 38.66182695 27 43 C27.53628068 46.07710564 27.73224541 48.94897744 27 52 C26.01 52.66 25.02 53.32 24 54 C23.9175 52.865625 23.835 51.73125 23.75 50.5625 C22.34440027 44.75542372 17.69572494 42.40922792 13.04296875 39.140625 C5.19404634 33.61917509 0.10129396 27.20490441 -3 18 C-3.91486124 11.30351564 -4.1890527 5.58883444 0 0 Z " fill="#D21F25" transform="translate(249,131)"/>
<path d="M0 0 C2.64 0 5.28 0 8 0 C8 11.55 8 23.1 8 35 C5.36 35 2.72 35 0 35 C0 23.45 0 11.9 0 0 Z " fill="#040707" transform="translate(336,243)"/>
<path d="M0 0 C2.64 0 5.28 0 8 0 C8 11.55 8 23.1 8 35 C5.36 35 2.72 35 0 35 C0 23.45 0 11.9 0 0 Z " fill="#040707" transform="translate(173,243)"/>
<path d="M0 0 C2.93453261 0.36681658 3.86437246 0.86437246 6 3 C7.65 3 9.3 3 11 3 C11 8.61 11 14.22 11 20 C9.35 20.33 7.7 20.66 6 21 C5.34 20.34 4.68 19.68 4 19 C0.91652174 18.83318891 0.91652174 18.83318891 -2 19 C-2.05380578 16.20807795 -2.09357669 13.4171859 -2.125 10.625 C-2.14175781 9.8309375 -2.15851563 9.036875 -2.17578125 8.21875 C-2.19335473 6.14507985 -2.10335168 4.07116759 -2 2 C-1.34 1.34 -0.68 0.68 0 0 Z " fill="#F0C307" transform="translate(267,63)"/>
<path d="M0 0 C3.53571429 0.53571429 3.53571429 0.53571429 5 2 C5.07325168 4.86267567 5.09238205 7.700719 5.0625 10.5625 C5.05798828 11.36880859 5.05347656 12.17511719 5.04882812 13.00585938 C5.03700518 15.00393756 5.01906914 17.00197783 5 19 C3.576875 18.938125 3.576875 18.938125 2.125 18.875 C-1.10244856 18.65026182 -1.10244856 18.65026182 -3 21 C-4.65 20.67 -6.3 20.34 -8 20 C-8 14.72 -8 9.44 -8 4 C-6.02 3.34 -4.04 2.68 -2 2 C-1.34 1.34 -0.68 0.68 0 0 Z " fill="#F1C307" transform="translate(332,63)"/>
<path d="M0 0 C2.475 0.99 2.475 0.99 5 2 C5 7.61 5 13.22 5 19 C3.02 19 1.04 19 -1 19 C-1.99 19.66 -2.98 20.32 -4 21 C-5.32 20.67 -6.64 20.34 -8 20 C-8 14.39 -8 8.78 -8 3 C-6.02 2.67 -4.04 2.34 -2 2 C-1.34 1.34 -0.68 0.68 0 0 Z " fill="#F1C307" transform="translate(258,63)"/>
<path d="M0 0 C0.556875 0.309375 1.11375 0.61875 1.6875 0.9375 C4.3347314 2.15379551 7.05349564 3 10 3 C10 8.61 10 14.22 10 20 C8.68 20.33 7.36 20.66 6 21 C5.01 20.34 4.02 19.68 3 19 C-0.12521833 18.83300768 -0.12521833 18.83300768 -3 19 C-3.08071788 16.20775927 -3.14035408 13.41783434 -3.1875 10.625 C-3.21263672 9.8309375 -3.23777344 9.036875 -3.26367188 8.21875 C-3.29004405 6.14413852 -3.15486462 4.06899135 -3 2 C-2.01 1.34 -1.02 0.68 0 0 Z " fill="#F6C807" transform="translate(342,63)"/>
<path d="M0 0 C3 1 3 1 4.0703125 2.78515625 C4.41835938 3.53667969 4.76640625 4.28820312 5.125 5.0625 C9.25261088 12.85771693 15.69038619 18.1711953 24 21 C24.125 23.375 24.125 23.375 24 26 C23.34 26.66 22.68 27.32 22 28 C16.38121217 27.46710332 12.16704889 24.65350413 8 21 C3.20721825 14.64347167 -0.37540655 8.07124078 0 0 Z " fill="#F1C307" transform="translate(262,94)"/>
<path d="M0 0 C0.66 0 1.32 0 2 0 C1.61594235 7.93719142 -0.19713587 14.86720702 -5.7109375 20.859375 C-7.41266631 22.36046329 -9.14240241 23.69882565 -11 25 C-11.86625 25.639375 -12.7325 26.27875 -13.625 26.9375 C-16.52741345 28.23594812 -18.01322018 27.93870223 -21 27 C-21.33 25.35 -21.66 23.7 -22 22 C-21.00419922 21.41992188 -21.00419922 21.41992188 -19.98828125 20.828125 C-10.29593098 15.11176075 -4.93875683 10.10302768 0 0 Z " fill="#F2C507" transform="translate(338,94)"/>
<path d="M0 0 C3 1 3 1 4 3 C5.89533342 3.46523063 5.89533342 3.46523063 8.0625 3.625 C9.361875 3.74875 10.66125 3.8725 12 4 C12.625 6.375 12.625 6.375 13 9 C12.34 9.66 11.68 10.32 11 11 C9.68 11 8.36 11 7 11 C7 13.31 7 15.62 7 18 C4.8125 18.75 4.8125 18.75 2 19 C-0.8125 17.1875 -0.8125 17.1875 -3 15 C-3 14.34 -3 13.68 -3 13 C-3.66 13 -4.32 13 -5 13 C-4.39254603 8.14036821 -2.27241033 4.2594482 0 0 Z " fill="#1D1707" transform="translate(292,66)"/>
<path d="M0 0 C1.04285156 -0.00257812 2.08570313 -0.00515625 3.16015625 -0.0078125 C5.9375 0.125 5.9375 0.125 8.9375 1.125 C10.64804387 3.34093183 11.69071724 5.58690652 12.9375 8.125 C12.6075 8.785 12.2775 9.445 11.9375 10.125 C10.9475 9.135 9.9575 8.145 8.9375 7.125 C8.31875 7.434375 7.7 7.74375 7.0625 8.0625 C3.92109764 9.63320118 2.44653645 10.26202608 -1.0625 9.875 C-1.76375 9.80796875 -2.465 9.7409375 -3.1875 9.671875 C-5.0625 9.125 -5.0625 9.125 -7.0625 6.125 C-7.7225 6.125 -8.3825 6.125 -9.0625 6.125 C-10.3825 8.765 -11.7025 11.405 -13.0625 14.125 C-14.27161995 10.49764016 -13.74180825 9.4856151 -12.375 6 C-12.04113281 5.11054687 -11.70726562 4.22109375 -11.36328125 3.3046875 C-10.0625 1.125 -10.0625 1.125 -8.296875 0.328125 C-5.51911565 0.07560142 -2.78996705 -0.00691442 0 0 Z " fill="#141007" transform="translate(301.0625,60.875)"/>
<path d="M0 0 C0.99 0 1.98 0 3 0 C2.67 1.65 2.34 3.3 2 5 C9.11445835 7.09876521 14.69728559 8.53121431 22 7 C23.34191406 6.74089844 23.34191406 6.74089844 24.7109375 6.4765625 C27.14572728 6.00597288 29.57366686 5.5121154 32 5 C31.505 2.525 31.505 2.525 31 0 C34.875 0.875 34.875 0.875 36 2 C36.1875 4.4375 36.1875 4.4375 36 7 C32.95123253 10.04876747 29.31293931 10.32818665 25.1875 11.25 C24.37990234 11.44851562 23.57230469 11.64703125 22.74023438 11.8515625 C18.07980095 12.90502657 15.37001578 13.28064797 11 11 C8.90421754 10.42674959 6.7994263 9.88557559 4.6875 9.375 C3.61886719 9.11460937 2.55023438 8.85421875 1.44921875 8.5859375 C0.64097656 8.39257812 -0.16726563 8.19921875 -1 8 C-1.625 5.6875 -1.625 5.6875 -2 3 C-1.34 2.01 -0.68 1.02 0 0 Z " fill="#E8BC07" transform="translate(284,124)"/>
<path d="M0 0 C1.32 0 2.64 0 4 0 C4.6875 2.75 4.6875 2.75 5 6 C3.5625 8.375 3.5625 8.375 2 10 C4.97 10.33 7.94 10.66 11 11 C11 10.34 11 9.68 11 9 C10.01 8.67 9.02 8.34 8 8 C7.375 5.125 7.375 5.125 7 2 C7.66 1.34 8.32 0.68 9 0 C11.625 0.375 11.625 0.375 14 1 C13.67 2.32 13.34 3.64 13 5 C12.01 4.67 11.02 4.34 10 4 C10.33 3.67 10.66 3.34 11 3 C10.34 2.67 9.68 2.34 9 2 C10.24976756 5.65316671 10.67098753 6.78065836 14 9 C14 9.99 14 10.98 14 12 C11.26922124 13.36538938 9.04439633 13.13231826 6 13.125 C4.39125 13.12886719 4.39125 13.12886719 2.75 13.1328125 C0 13 0 13 -2 12 C-2 11.01 -2 10.02 -2 9 C-0.68 8.67 0.64 8.34 2 8 C2.33 6.02 2.66 4.04 3 2 C2.34 2 1.68 2 1 2 C1.33 2.99 1.66 3.98 2 5 C1.01 4.67 0.02 4.34 -1 4 C-0.67 2.68 -0.34 1.36 0 0 Z " fill="#D9B107" transform="translate(295,157)"/>
<path d="M0 0 C1.65 0.99 3.3 1.98 5 3 C4.01 3.33 3.02 3.66 2 4 C2.33 9.61 2.66 15.22 3 21 C4.32 21.66 5.64 22.32 7 23 C5 25 5 25 1.875 25.125 C0.451875 25.063125 0.451875 25.063125 -1 25 C-1.02900455 21.3958502 -1.04680018 17.79173038 -1.0625 14.1875 C-1.07087891 13.16333984 -1.07925781 12.13917969 -1.08789062 11.08398438 C-1.09111328 10.10107422 -1.09433594 9.11816406 -1.09765625 8.10546875 C-1.10289307 7.19949951 -1.10812988 6.29353027 -1.11352539 5.36010742 C-1 3 -1 3 0 0 Z " fill="#080907" transform="translate(322,62)"/>
<path d="M0 0 C3.68095912 4.29158552 6.43742621 8.93546435 9.25 13.8125 C9.70890625 14.60076172 10.1678125 15.38902344 10.640625 16.20117188 C11.76404386 18.13204804 12.88371244 20.06499526 14 22 C13.34 22.33 12.68 22.66 12 23 C5.97556744 18.53244327 1.92412307 14.03568755 0.5390625 6.48828125 C0.28746763 4.3225254 0.10080994 2.17749478 0 0 Z " fill="#E8BD07" transform="translate(254,129)"/>
<path d="M0 0 C1.58336125 4.88203052 0.17108538 8.49591779 -2 13 C-7.15504407 20.40338859 -7.15504407 20.40338859 -11.22265625 21.71875 C-11.80917969 21.8115625 -12.39570313 21.904375 -13 22 C-9.38665872 14.14793144 -4.91567287 7.09906106 0 0 Z " fill="#EABE07" transform="translate(347,130)"/>
<path d="M0 0 C4.14586985 1.60387666 5.41677526 4.81655463 7.48828125 8.59765625 C7.89498047 9.30857422 8.30167969 10.01949219 8.72070312 10.75195312 C9.72055985 12.50464315 10.70017082 14.26885501 11.67578125 16.03515625 C10.68578125 16.36515625 9.69578125 16.69515625 8.67578125 17.03515625 C8.22203125 16.18953125 7.76828125 15.34390625 7.30078125 14.47265625 C4.21922588 9.76035078 -0.674676 7.03428879 -5.32421875 4.03515625 C-4.99421875 3.04515625 -4.66421875 2.05515625 -4.32421875 1.03515625 C-2.32421875 0.03515625 -2.32421875 0.03515625 0 0 Z " fill="#EABE07" transform="translate(269.32421875,155.96484375)"/>
<path d="M0 0 C0.33 -0.33 0.66 -0.66 1 -1 C3.33944736 -0.71269945 5.6739143 -0.38063221 8 0 C8 0.66 8 1.32 8 2 C8.99 2.33 9.98 2.66 11 3 C10.67 3.66 10.34 4.32 10 5 C9.4225 4.690625 8.845 4.38125 8.25 4.0625 C5.05032805 2.5515438 3.02687912 1.79462418 -0.5 2.5 C-3 3 -3 3 -5 2.375 C-7.20776022 1.74758164 -7.20776022 1.74758164 -9.75 3.4375 C-10.4925 3.953125 -11.235 4.46875 -12 5 C-12.33 4.01 -12.66 3.02 -13 2 C-8.34296401 -1.63830937 -5.52488481 -0.92081414 0 0 Z " fill="#1F1209" transform="translate(265,62)"/>
<path d="M0 0 C1.4540625 0.0309375 1.4540625 0.0309375 2.9375 0.0625 C3.5625 2.4375 3.5625 2.4375 3.9375 5.0625 C3.2775 5.7225 2.6175 6.3825 1.9375 7.0625 C-1.1875 6.6875 -1.1875 6.6875 -4.0625 6.0625 C-4.105221 4.39638095 -4.10313832 2.72867115 -4.0625 1.0625 C-3.0625 0.0625 -3.0625 0.0625 0 0 Z " fill="#DCB307" transform="translate(301.0625,69.9375)"/>
<path d="M0 0 C0.99 0.33 1.98 0.66 3 1 C3.12375 1.94875 3.2475 2.8975 3.375 3.875 C3.71687177 7.08667191 3.71687177 7.08667191 6 9 C3.8125 10.1875 3.8125 10.1875 1 11 C-1.8125 9.625 -1.8125 9.625 -4 8 C-2.68 7.67 -1.36 7.34 0 7 C0 4.69 0 2.38 0 0 Z " fill="#100D07" transform="translate(299,77)"/>
<path d="M0 0 C2.97 0 5.94 0 9 0 C8.67 1.32 8.34 2.64 8 4 C5.4375 5.25 5.4375 5.25 3 6 C1.68 4.68 0.36 3.36 -1 2 C-0.67 1.34 -0.34 0.68 0 0 Z " fill="#EBBF07" transform="translate(297,63)"/>
<path d="M0 0 C3.125 0.375 3.125 0.375 6 1 C5.6875 2.875 5.6875 2.875 5 5 C2 7 2 7 -2 7 C-2.125 4.625 -2.125 4.625 -2 2 C-1.34 1.34 -0.68 0.68 0 0 Z " fill="#ECC007" transform="translate(304,77)"/>
<path d="M0 0 C1 1 1 1 1.0625 4.0625 C1.041875 5.031875 1.02125 6.00125 1 7 C-2.34249629 6.40312566 -4.46436342 5.26396123 -7 3 C-7 2.34 -7 1.68 -7 1 C-4.51588385 -0.24205807 -2.74800896 -0.14092354 0 0 Z " fill="#F6C707" transform="translate(298,77)"/>
<path d="M0 0 C0.99 0.33 1.98 0.66 3 1 C3.33 2.98 3.66 4.96 4 7 C2.02 7.66 0.04 8.32 -2 9 C-2.25 3.375 -2.25 3.375 0 0 Z " fill="#EDC007" transform="translate(292,66)"/>
<path d="M0 0 C0.99 0.33 1.98 0.66 3 1 C3.33 3.31 3.66 5.62 4 8 C2.33388095 8.042721 0.66617115 8.04063832 -1 8 C-2 7 -2 7 -2.1875 4.5625 C-2 2 -2 2 0 0 Z " fill="#EFC207" transform="translate(308,67)"/>
<path d="M0 0 C3.95423332 0.38021474 5.47469326 1.53719326 8.25 4.3125 C8.25 4.9725 8.25 5.6325 8.25 6.3125 C5.62389294 5.87481549 3.4897597 5.43943161 1.125 4.1875 C-0.90044414 2.98056769 -0.90044414 2.98056769 -3.75 4.3125 C-3.75 0.42613636 -3.75 0.42613636 0 0 Z " fill="#2A1909" transform="translate(342.75,60.6875)"/>
<path d="M0 0 C0.99 0 1.98 0 3 0 C2.34 1.98 1.68 3.96 1 6 C-1.3125 6.625 -1.3125 6.625 -4 7 C-4.99 6.34 -5.98 5.68 -7 5 C-6.67 3.68 -6.34 2.36 -6 1 C-5.34 1 -4.68 1 -4 1 C-3.67 1.99 -3.34 2.98 -3 4 C-2.34 4 -1.68 4 -1 4 C-0.67 2.68 -0.34 1.36 0 0 Z " fill="#D8B007" transform="translate(314,136)"/>
<path d="M0 0 C2.625 0.375 2.625 0.375 5 1 C4.67 2.32 4.34 3.64 4 5 C3.01 4.67 2.02 4.34 1 4 C1.33 3.67 1.66 3.34 2 3 C1.34 2.67 0.68 2.34 0 2 C1.39759905 5.54518884 1.39759905 5.54518884 3 9 C1.68 8.67 0.36 8.34 -1 8 C-1.625 5.125 -1.625 5.125 -2 2 C-1.34 1.34 -0.68 0.68 0 0 Z " fill="#CEA707" transform="translate(304,157)"/>
<path d="M0 0 C2.125 0.375 2.125 0.375 4 1 C3.01 3.31 2.02 5.62 1 8 C0.01 7.67 -0.98 7.34 -2 7 C-2.125 4.625 -2.125 4.625 -2 2 C-1.34 1.34 -0.68 0.68 0 0 Z " fill="#191807" transform="translate(312,133)"/>
<path d="M0 0 C1.32 0.33 2.64 0.66 4 1 C4 2.65 4 4.3 4 6 C7.27773504 5.24849977 7.27773504 5.24849977 9 2 C9.5625 3.9375 9.5625 3.9375 10 6 C9 7 9 7 6.125 7.3125 C3 7 3 7 1.125 5.1875 C0 3 0 3 0 0 Z " fill="#E4B907" transform="translate(285,135)"/>
<path d="M0 0 C0.99 0 1.98 0 3 0 C3 0.99 3 1.98 3 3 C0.47524538 4.26237731 -1.31200466 4.09856404 -4.125 4.0625 C-5.03507812 4.05347656 -5.94515625 4.04445312 -6.8828125 4.03515625 C-7.58148438 4.02355469 -8.28015625 4.01195312 -9 4 C-9.33 3.34 -9.66 2.68 -10 2 C-6.7 2 -3.4 2 0 2 C0 1.34 0 0.68 0 0 Z " fill="#E9BD07" transform="translate(306,166)"/>
<path d="M0 0 C0.33 1.32 0.66 2.64 1 4 C-0.65 4.66 -2.3 5.32 -4 6 C-2.25 1.125 -2.25 1.125 0 0 Z " fill="#181707" transform="translate(338,107)"/>
<path d="M0 0 C0.66 0.33 1.32 0.66 2 1 C1.67 1.99 1.34 2.98 1 4 C-0.98 4.33 -2.96 4.66 -5 5 C-4 2 -4 2 -2.0625 0.75 C-1.381875 0.5025 -0.70125 0.255 0 0 Z " fill="#1B1A07" transform="translate(322,109)"/>
</svg>
